<svg width="22" height="22" viewBox="0 0 22 22" fill="none" xmlns="http://www.w3.org/2000/svg">
<path d="M7.50959 19.3955C6.84272 20.0622 5.93829 20.4368 4.99527 20.4367C4.05226 20.4366 3.1479 20.0619 2.48114 19.395C1.81439 18.7282 1.43986 17.8238 1.43994 16.8807C1.44002 15.9377 1.81472 15.0334 2.48159 14.3666L4.6407 12.207C3.70381 9.41949 4.34648 6.21772 6.56692 3.99594C8.78914 1.77372 11.9927 1.13238 14.7816 2.07105C14.9607 2.13105 15.1758 2.21994 15.426 2.33683C15.5488 2.39405 15.656 2.48004 15.7385 2.5875C15.821 2.69496 15.8764 2.82073 15.8999 2.95414C15.9235 3.08754 15.9145 3.22467 15.8738 3.35388C15.8331 3.48309 15.7618 3.60057 15.666 3.69638L11.9096 7.45283L14.4238 9.96705L18.1318 6.25905C18.2333 6.15762 18.3578 6.08226 18.4947 6.0394C18.6316 5.99653 18.7768 5.98744 18.918 6.0129C19.0592 6.03836 19.1921 6.09761 19.3054 6.1856C19.4187 6.27358 19.5091 6.38769 19.5687 6.51816C19.6825 6.76616 19.7683 6.97949 19.8265 7.15861C20.7345 9.93283 20.0856 13.1048 17.8807 15.3097C15.6594 17.5306 12.4571 18.1728 9.66914 17.2359L7.50959 19.395V19.3955Z" fill="white"/>
</svg>
