<?xml version="1.0" standalone="no"?><!DOCTYPE svg PUBLIC "-//W3C//DTD SVG 1.1//EN" "http://www.w3.org/Graphics/SVG/1.1/DTD/svg11.dtd"><svg t="1742986045279" class="icon" viewBox="0 0 1024 1024" version="1.1" xmlns="http://www.w3.org/2000/svg" p-id="16253" xmlns:xlink="http://www.w3.org/1999/xlink" width="200" height="200"><path d="M42.666667 170.666667a42.666667 42.666667 0 0 1 42.666666-42.666667h357.632a42.666667 42.666667 0 0 1 38.144 23.594667L512 213.333333h426.666667a42.666667 42.666667 0 0 1 42.666666 42.666667v597.333333a42.666667 42.666667 0 0 1-42.666666 42.666667H85.333333a42.666667 42.666667 0 0 1-42.666666-42.666667V170.666667z" fill="#FFA53D" p-id="16254"></path><path d="M42.666667 256a42.666667 42.666667 0 0 1 42.666666-42.666667h853.333334a42.666667 42.666667 0 0 1 42.666666 42.666667v597.333333a42.666667 42.666667 0 0 1-42.666666 42.666667H85.333333a42.666667 42.666667 0 0 1-42.666666-42.666667V256z" fill="#FFC60A" p-id="16255"></path></svg>