<svg width="40" height="42" viewBox="0 0 40 42" fill="none" xmlns="http://www.w3.org/2000/svg">
<path d="M6.66663 5.16667C6.66663 4.24619 7.41282 3.5 8.33329 3.5H24.6548C24.8758 3.5 25.0878 3.5878 25.244 3.74408L33.0892 11.5893C33.2455 11.7455 33.3333 11.9575 33.3333 12.1785V36.8333C33.3333 37.7538 32.5871 38.5 31.6666 38.5H8.33329C7.41282 38.5 6.66663 37.7538 6.66663 36.8333V5.16667Z" fill="#14C0FF"/>
<path d="M10 29.2051V21H12.0513L15.1282 24.0769L18.2051 21H20.2564V29.2051H18.2051V23.9026L15.1282 26.9795L12.0513 23.9026V29.2051H10ZM24.359 21H27.4359V25.1026H30L25.8974 29.7179L21.7949 25.1026H24.359V21Z" fill="white"/>
<path d="M25 3.57495C25.09 3.6159 25.1728 3.67292 25.2441 3.74418L33.0893 11.5894C33.1605 11.6606 33.2175 11.7434 33.2585 11.8334H26.6667C25.7462 11.8334 25 11.0872 25 10.1668V3.57495Z" fill="#11A3D9"/>
</svg>
