<svg width="40" height="42" viewBox="0 0 40 42" fill="none" xmlns="http://www.w3.org/2000/svg">
<path fill-rule="evenodd" clip-rule="evenodd" d="M6.66699 5.16667C6.66699 4.24619 7.41318 3.5 8.33366 3.5H24.6551C24.8762 3.5 25.0881 3.5878 25.2444 3.74408L33.0896 11.5893C33.2459 11.7455 33.3337 11.9575 33.3337 12.1785V36.8333C33.3337 37.7538 32.5875 38.5 31.667 38.5H8.33366C7.41318 38.5 6.66699 37.7538 6.66699 36.8333V5.16667Z" fill="#3370FF"/>
<path d="M25.0532 21.8466H22.9132V20.5266H28.7632V21.8466H26.6232V27.6666H25.0532V21.8466Z" fill="white"/>
<path d="M18.5533 23.9266L16.2533 20.5266H18.0733L19.4733 22.8066L20.9233 20.5266H22.6433L20.3533 23.9366L22.8433 27.6666H20.9733L19.4133 25.1966L17.8233 27.6666H16.0633L18.5533 23.9266Z" fill="white"/>
<path d="M12.27 21.8466H10.13V20.5266H15.98V21.8466H13.84V27.6666H12.27V21.8466Z" fill="white"/>
<path d="M25 3.57495C25.09 3.6159 25.1728 3.67292 25.2441 3.74418L33.0893 11.5894C33.1605 11.6606 33.2175 11.7434 33.2585 11.8334H26.6667C25.7462 11.8334 25 11.0872 25 10.1668V3.57495Z" fill="#2B5FD9"/>
</svg>
