<svg width="24" height="24" viewBox="0 0 24 24" fill="none" xmlns="http://www.w3.org/2000/svg">
<path fill-rule="evenodd" clip-rule="evenodd" d="M4 2.5C4 1.94772 4.44772 1.5 5 1.5H14.7929C14.9255 1.5 15.0527 1.55268 15.1464 1.64645L19.8536 6.35355C19.9473 6.44732 20 6.5745 20 6.70711V21.5C20 22.0523 19.5523 22.5 19 22.5H5C4.44772 22.5 4 22.0523 4 21.5V2.5Z" fill="#8F959E"/>
<path d="M15 1.54492C15.054 1.56949 15.1037 1.6037 15.1464 1.64646L19.8536 6.35357C19.8963 6.39632 19.9305 6.44602 19.9551 6.50001H16C15.4477 6.50001 15 6.0523 15 5.50001V1.54492Z" fill="#646A73"/>
<path d="M14.288 9.86441C13.7422 9.34739 13.026 9.09082 12.1353 9.09082C11.1347 9.09082 10.3505 9.41162 9.78235 10.065C9.30108 10.6265 9.04179 11.1646 9.00471 12.013C9.00384 12.033 9.00309 12.0697 9.00247 12.1122C9.00043 12.2508 9.11287 12.3635 9.25147 12.3635H9.84253C9.98 12.3635 10.0914 12.2525 10.0936 12.1151C10.0943 12.0737 10.0951 12.038 10.0961 12.0189C10.1251 11.4328 10.278 11.1262 10.5508 10.7851C10.8953 10.3259 11.4006 10.0999 12.0943 10.0999C12.7134 10.0999 13.1776 10.2578 13.4979 10.5782C13.8033 10.8963 13.9625 11.3294 13.9625 11.8726C13.9625 12.2435 13.8281 12.5967 13.5549 12.948C13.4678 13.0568 13.3425 13.1862 12.9388 13.5899C12.3012 14.1474 11.9073 14.601 11.6993 15.0468C11.5282 15.3888 11.441 15.7775 11.441 16.1954V16.4772C11.441 16.6153 11.5529 16.7272 11.691 16.7272H12.2956C12.4336 16.7272 12.5456 16.6153 12.5456 16.4772V16.1954C12.5456 15.8413 12.6327 15.5237 12.8133 15.2141C12.9486 14.9841 13.1223 14.8038 13.4251 14.5389C14.0321 13.9897 14.3689 13.6625 14.5198 13.4705C14.8821 12.9923 15.0671 12.4446 15.0671 11.8454C15.0671 11.0185 14.8075 10.355 14.288 9.86441ZM11.7046 17.8181C11.5666 17.8181 11.4546 17.93 11.4546 18.0681V18.659C11.4546 18.7971 11.5666 18.909 11.7046 18.909H12.2956C12.4336 18.909 12.5456 18.7971 12.5456 18.659V18.0681C12.5456 17.93 12.4336 17.8181 12.2956 17.8181H11.7046Z" fill="white"/>
</svg>
