<?xml version="1.0" standalone="no"?><!DOCTYPE svg PUBLIC "-//W3C//DTD SVG 1.1//EN" "http://www.w3.org/Graphics/SVG/1.1/DTD/svg11.dtd"><svg t="1756198716906" class="icon" viewBox="0 0 1024 1024" version="1.1" xmlns="http://www.w3.org/2000/svg" p-id="16746" xmlns:xlink="http://www.w3.org/1999/xlink" width="200" height="200"><path d="M170.666667 106.666667a42.666667 42.666667 0 0 1 42.666666-42.666667h417.834667a21.333333 21.333333 0 0 1 15.061333 6.229333l200.874667 200.874667a21.333333 21.333333 0 0 1 6.229333 15.061333V917.333333a42.666667 42.666667 0 0 1-42.666666 42.666667H213.333333a42.666667 42.666667 0 0 1-42.666666-42.666667v-810.666666z" fill="#8F959E" p-id="16747"></path><path d="M640 65.92a21.290667 21.290667 0 0 1 6.229333 4.309333l200.874667 200.874667a21.376 21.376 0 0 1 4.309333 6.229333H682.666667a42.666667 42.666667 0 0 1-42.666667-42.666666V65.92z" fill="#646A73" p-id="16748"></path><path d="M523.690667 530.688a104.405333 104.405333 0 0 1 40.832 162.005333l-59.136 73.045334a104.405333 104.405333 0 1 1-162.261334-131.413334l56.576-69.802666 1.792 17.152c1.28 12.032 5.418667 23.125333 11.648 32.597333l-37.546666 46.336a62.634667 62.634667 0 1 0 97.322666 78.848l59.136-73.002667a62.634667 62.634667 0 0 0-36.565333-100.906666l28.202667-34.858667z m-31.488 131.626667a104.448 104.448 0 0 1-40.832-162.005334l59.136-73.002666a104.405333 104.405333 0 0 1 162.261333 131.413333l-56.533333 69.802667-1.834667-17.152a72.746667 72.746667 0 0 0-11.648-32.597334l37.546667-46.378666a62.634667 62.634667 0 0 0-97.322667-78.805334l-59.136 73.002667a62.634667 62.634667 0 0 0 36.608 100.864l-28.245333 34.858667z" fill="#FFFFFF" p-id="16749"></path></svg>