<svg width="24" height="24" viewBox="0 0 24 24" fill="none" xmlns="http://www.w3.org/2000/svg">
<path fill-rule="evenodd" clip-rule="evenodd" d="M4.00024 2.5C4.00024 1.94772 4.44796 1.5 5.00024 1.5H14.7931C14.9257 1.5 15.0529 1.55268 15.1467 1.64645L19.8538 6.35355C19.9476 6.44732 20.0002 6.5745 20.0002 6.70711V21.5C20.0002 22.0523 19.5525 22.5 19.0002 22.5H5.00024C4.44796 22.5 4.00024 22.0523 4.00024 21.5V2.5Z" fill="#D136D1"/>
<path fill-rule="evenodd" clip-rule="evenodd" d="M4.00024 2.5C4.00024 1.94772 4.44796 1.5 5.00024 1.5H14.7931C14.9257 1.5 15.0529 1.55268 15.1467 1.64645L19.8538 6.35355C19.9476 6.44732 20.0002 6.5745 20.0002 6.70711V21.5C20.0002 22.0523 19.5525 22.5 19.0002 22.5H5.00024C4.44796 22.5 4.00024 22.0523 4.00024 21.5V2.5Z" fill="#3370FF"/>
<path d="M15 1.72408C15 1.6402 15.0871 1.58714 15.1464 1.64646L19.8536 6.35357C19.9129 6.41288 19.8598 6.50001 19.7759 6.50001H16C15.4477 6.50001 15 6.0523 15 5.50001V1.72408Z" fill="#2B5FD9"/>
<path d="M10.5347 6.53465H9.26733V7.80198H10.5347V9.06931H9.26733V10.3366H10.5347V11.604H9.26733V12.8317H10.5347V16H8V11.604H9.26733V10.3366H8V9.06931H9.26733V7.80198H8V6.53465H9.26733V5.26733H8V4H9.26733V5.26733H10.5347V6.53465Z" fill="white"/>
</svg>
