<svg width="20" height="20" viewBox="0 0 20 20" fill="none" xmlns="http://www.w3.org/2000/svg">
<path d="M3.18428 4.04678C3.99599 3.49862 4.93827 3.33337 5.56826 3.33337H12.5001C12.0398 3.33337 11.6667 3.70647 11.6667 4.16671C11.6667 4.62694 12.0398 5.00004 12.5001 5.00004H5.56826C5.17552 5.00004 4.58372 5.11283 4.11702 5.428C3.69634 5.71209 3.33341 6.18316 3.33341 7.06392C3.33341 7.94608 3.69793 8.42805 4.12319 8.72081C4.59235 9.04379 5.18357 9.16132 5.56826 9.16132H14.4978C15.1332 9.16132 16.0634 9.3331 16.8602 9.89052C17.7012 10.4789 18.3334 11.4598 18.3334 12.9079C18.3334 14.3555 17.7017 15.3385 16.8624 15.9298C16.0666 16.4905 15.1362 16.6667 14.4978 16.6667H7.50008C7.96032 16.6667 8.33342 16.2936 8.33342 15.8334C8.33342 15.3731 7.96032 15 7.50008 15H14.4978C14.882 15 15.4529 14.8841 15.9025 14.5673C16.3087 14.2812 16.6667 13.8014 16.6667 12.9079C16.6667 12.0149 16.3092 11.5391 15.9047 11.2562C15.4561 10.9423 14.8851 10.828 14.4978 10.828H5.56826C4.93022 10.828 3.98736 10.6507 3.17811 10.0936C2.32496 9.50629 1.66675 8.52289 1.66675 7.06392C1.66675 5.60354 2.32656 4.62601 3.18428 4.04678Z" fill="white"/>
<path d="M7.50008 15C7.03984 15 6.66675 15.3731 6.66675 15.8334C6.66675 16.2936 7.03984 16.6667 7.50008 16.6667H2.50008C2.03984 16.6667 1.66675 16.2936 1.66675 15.8334C1.66675 15.3731 2.03984 15 2.50008 15H7.50008Z" fill="white"/>
<path d="M12.5001 5.00004C12.9603 5.00004 13.3334 4.62694 13.3334 4.16671C13.3334 3.70647 12.9603 3.33337 12.5001 3.33337H17.4546C17.9148 3.33337 18.2879 3.70647 18.2879 4.16671C18.2879 4.62694 17.9148 5.00004 17.4546 5.00004H12.5001Z" fill="white"/>
<path fill-rule="evenodd" clip-rule="evenodd" d="M12.5 3.33329C12.0398 3.33329 11.6667 3.70639 11.6667 4.16663C11.6667 4.62686 12.0398 4.99996 12.5 4.99996C12.9602 4.99996 13.3333 4.62686 13.3333 4.16663C13.3333 3.70639 12.9602 3.33329 12.5 3.33329ZM10 4.16663C10 2.78591 11.1193 1.66663 12.5 1.66663C13.8807 1.66663 15 2.78591 15 4.16663C15 5.54734 13.8807 6.66663 12.5 6.66663C11.1193 6.66663 10 5.54734 10 4.16663Z" fill="white"/>
<path fill-rule="evenodd" clip-rule="evenodd" d="M7.5 15C7.03976 15 6.66667 15.3731 6.66667 15.8334C6.66667 16.2936 7.03976 16.6667 7.5 16.6667C7.96024 16.6667 8.33333 16.2936 8.33333 15.8334C8.33333 15.3731 7.96024 15 7.5 15ZM5 15.8334C5 14.4527 6.11929 13.3334 7.5 13.3334C8.88071 13.3334 10 14.4527 10 15.8334C10 17.2141 8.88071 18.3334 7.5 18.3334C6.11929 18.3334 5 17.2141 5 15.8334Z" fill="white"/>
</svg>
