<svg width="40" height="40" viewBox="0 0 40 40" fill="none" xmlns="http://www.w3.org/2000/svg">
<path d="M26.4855 13.974C26.9025 13.974 27.3196 14.0125 27.7345 14.0489C26.6184 8.86961 21.0198 5 14.6421 5C7.51045 5.02502 1.66672 9.84509 1.66672 15.9656C1.66672 19.4941 3.61468 22.4043 6.85045 24.6575L5.54437 28.5227L10.0863 26.2719C11.7134 26.5901 13.0196 26.9084 14.6261 26.9084C15.0432 26.9084 15.4397 26.8902 15.8361 26.8538C15.5785 25.9748 15.4451 25.0642 15.4397 24.1483C15.4581 18.537 20.3208 13.9762 26.4878 13.9762L26.4855 13.974H26.4855ZM19.5051 10.4862C20.4905 10.4862 21.1321 11.1228 21.1321 12.1004C21.1321 13.0553 20.4905 13.7147 19.5051 13.7147C18.5402 13.7147 17.5571 13.0759 17.5571 12.1003C17.5571 11.1228 18.5402 10.4862 19.5051 10.4862ZM10.4231 13.7147C9.46072 13.7147 8.47535 13.0759 8.47535 12.1003C8.47535 11.1228 9.46072 10.4862 10.4231 10.4862C11.388 10.4862 12.0503 11.1228 12.0503 12.1004C12.0503 13.0553 11.4086 13.7147 10.4231 13.7147ZM38.3334 24.0141C38.3334 18.8712 33.1497 14.6674 27.3012 14.6674C21.1343 14.6674 16.2714 18.8712 16.2714 24.0141C16.2714 29.1752 21.1343 33.3631 27.3012 33.3631C28.5892 33.3631 29.8953 33.0448 31.1994 32.7243L34.756 34.6568L33.7729 31.4464C36.3854 29.4776 38.3334 26.9038 38.3334 24.0141ZM23.7262 22.3997C23.0846 22.3997 22.42 21.7632 22.42 21.1039C22.42 20.4673 23.0846 19.808 23.7262 19.808C24.7116 19.808 25.3534 20.4469 25.3534 21.1039C25.3534 21.7632 24.7116 22.3997 23.7262 22.3997ZM30.8602 22.3997C30.2163 22.3997 29.5722 21.7632 29.5722 21.1039C29.5722 20.4673 30.214 19.808 30.8602 19.808C31.8433 19.808 32.4872 20.4469 32.4872 21.1039C32.4872 21.7632 31.8433 22.3997 30.8602 22.3997Z" fill="#09BB07"/>
</svg>
