<svg width="40" height="40" viewBox="0 0 40 40" fill="none" xmlns="http://www.w3.org/2000/svg">
<mask id="mask0_7009_1160" style="mask-type:luminance" maskUnits="userSpaceOnUse" x="4" y="6" width="34" height="28">
<path d="M37.5349 6.66666H4.00006V33.3333H37.5349V6.66666Z" fill="white"/>
</mask>
<g mask="url(#mask0_7009_1160)">
<path d="M21.4253 20.6715C21.4526 20.644 21.4819 20.6185 21.5093 20.5911C21.5659 20.5381 21.6207 20.4833 21.6755 20.4284L21.7889 20.3171L22.1305 19.9789L22.5946 19.5204L22.9929 19.1257L23.3674 18.7548L23.7585 18.3693L24.1166 18.0148L24.6154 17.5215C24.7103 17.4284 24.8073 17.3369 24.9059 17.2475C25.0867 17.0812 25.2731 16.9223 25.465 16.7688C25.6403 16.6281 25.8213 16.4928 26.0039 16.3613C26.2615 16.1787 26.5283 16.0068 26.8006 15.8461C27.0674 15.6889 27.3414 15.5409 27.6227 15.4057C27.8859 15.2779 28.1563 15.1609 28.4303 15.0531C28.5838 14.9928 28.7373 14.9361 28.8945 14.8832C28.973 14.8557 29.0515 14.8301 29.1302 14.8064C28.4267 12.0365 27.1405 9.50052 25.4065 7.33532C25.0703 6.91146 24.555 6.66666 24.0106 6.66666H9.62754C9.36634 6.66666 9.25848 6.99919 9.46861 7.15266C14.3617 10.7393 18.4434 15.3637 21.3923 20.7025C21.4033 20.6933 21.4142 20.6824 21.4253 20.6715Z" fill="#00D6B9"/>
<path d="M15.721 33.3333C23.1482 33.3333 29.6179 29.2351 32.9945 23.1764C33.1133 22.9645 33.2283 22.7489 33.3379 22.5315C33.1662 22.8603 32.9781 23.1709 32.7715 23.4633C32.6985 23.5675 32.6235 23.6697 32.545 23.7703C32.4482 23.8963 32.3477 24.0169 32.2454 24.1356C32.1631 24.2288 32.0809 24.3201 31.995 24.4097C31.8215 24.5907 31.6406 24.7605 31.4523 24.9213C31.3482 25.0108 31.2423 25.0967 31.1326 25.1808C31.0047 25.2776 30.875 25.3708 30.7435 25.4603C30.6594 25.5169 30.5754 25.5717 30.4895 25.6229C30.3999 25.6777 30.3105 25.7306 30.2173 25.7818C30.0309 25.886 29.8409 25.9811 29.6473 26.0688C29.4791 26.1455 29.3074 26.2149 29.1338 26.2788C28.9455 26.3483 28.7538 26.4085 28.5601 26.4633C28.2714 26.5437 27.979 26.6059 27.6794 26.6535C27.4638 26.6863 27.2463 26.7119 27.0253 26.7265C26.7951 26.7429 26.5613 26.7484 26.3255 26.7448C26.0679 26.741 25.8085 26.7247 25.5454 26.6955C25.3535 26.6753 25.1598 26.6461 24.9679 26.6132C24.7999 26.584 24.6318 26.5475 24.4619 26.5072C24.3723 26.4853 24.2846 26.4633 24.1951 26.4396C23.9466 26.372 23.6999 26.3044 23.4551 26.2332C23.3327 26.1984 23.2103 26.1619 23.0879 26.1253C22.9051 26.0705 22.7225 26.0157 22.5415 25.9591C22.3935 25.9135 22.2438 25.8659 22.0958 25.8165C21.9551 25.7709 21.8143 25.7252 21.6737 25.6777C21.5787 25.6448 21.4818 25.6137 21.3869 25.5809C21.2699 25.5407 21.1549 25.5005 21.0397 25.4603C20.9575 25.4311 20.8734 25.4018 20.7913 25.3727C20.6267 25.3141 20.4642 25.2539 20.3015 25.1936C20.2065 25.1588 20.1134 25.1223 20.0183 25.0857C19.8923 25.0383 19.7662 24.9889 19.6401 24.9396C19.5067 24.8865 19.3751 24.8355 19.2418 24.7807C19.1559 24.7459 19.0701 24.7112 18.9842 24.6747C18.8782 24.6308 18.7705 24.5869 18.6645 24.5413C18.5822 24.5065 18.5001 24.4719 18.4178 24.4371C18.3319 24.4005 18.2461 24.364 18.1619 24.3257C18.0889 24.2928 18.0139 24.2617 17.9409 24.2288C17.8733 24.1996 17.8057 24.1685 17.7381 24.1393C17.6705 24.1083 17.6011 24.0772 17.5335 24.0461C17.4622 24.0132 17.3927 23.9821 17.3215 23.9493C17.2319 23.9072 17.1443 23.8671 17.0547 23.8251C16.9615 23.7812 16.8685 23.7373 16.777 23.6935C16.6783 23.646 16.5797 23.5985 16.481 23.5492C16.397 23.5071 16.313 23.4669 16.2289 23.4249C11.7817 21.2013 7.83513 18.2377 4.46597 14.6475C4.29787 14.4684 4.00006 14.5872 4.00006 14.832L4.00737 27.5249V28.5554C4.00737 29.1529 4.30337 29.7156 4.80034 30.0464C7.92833 32.122 11.683 33.3333 15.721 33.3333Z" fill="#3370FF"/>
<path d="M32.9945 23.1764C32.9909 23.1819 32.9871 23.1873 32.9854 23.1929L32.9945 23.1764L33.0621 23.0521C33.0383 23.0943 33.0163 23.1344 32.9945 23.1764Z" fill="#133C92"/>
<path d="M33.3033 22.5954L33.3216 22.5625L33.3306 22.5461C33.3215 22.5625 33.3123 22.5789 33.3033 22.5954Z" fill="#133C92"/>
<path d="M37.5348 15.4422C36.0292 14.7005 34.3355 14.2838 32.5431 14.2838C31.4779 14.2838 30.4475 14.43 29.4718 14.706C29.3586 14.737 29.2471 14.7717 29.1356 14.8064C29.0571 14.832 28.9784 14.8576 28.8999 14.8832C28.7428 14.9361 28.5892 14.9928 28.4358 15.053C28.1618 15.1609 27.8914 15.2778 27.6283 15.4057C27.3468 15.5409 27.0728 15.6889 26.806 15.8461C26.532 16.0068 26.2671 16.1786 26.0094 16.3613C25.8248 16.491 25.6458 16.6281 25.4704 16.7688C25.2786 16.9222 25.0922 17.083 24.9114 17.2474C24.8127 17.3369 24.7158 17.4284 24.6208 17.5214L24.122 18.0148L23.7639 18.3693L23.3728 18.7548L22.9983 19.1257L22.6 19.5204L22.1359 19.9789L21.7943 20.317L21.681 20.4284C21.6262 20.4833 21.5695 20.5362 21.5147 20.591C21.4874 20.6185 21.458 20.644 21.4307 20.6714C21.3887 20.7116 21.3466 20.7518 21.3046 20.792C21.2571 20.8358 21.2114 20.8797 21.1639 20.9236C19.9324 22.0545 18.5566 23.0321 17.0675 23.8232C17.1552 23.8652 17.2448 23.9073 17.3343 23.9474C17.4038 23.9804 17.475 24.0132 17.5463 24.0442C17.6139 24.0753 17.6832 24.1064 17.7508 24.1374C17.8184 24.1685 17.886 24.1977 17.9536 24.227C18.0268 24.2598 18.1016 24.2928 18.1748 24.3238C18.2607 24.3604 18.3447 24.3988 18.4306 24.4353C18.5128 24.47 18.595 24.5048 18.6772 24.5394C18.7832 24.585 18.891 24.6289 18.997 24.6728C19.0828 24.7076 19.1687 24.7422 19.2546 24.7788C19.3862 24.8317 19.5195 24.8848 19.6528 24.9377C19.779 24.987 19.9051 25.0364 20.0311 25.084C20.1262 25.1205 20.2194 25.1552 20.3143 25.1917C20.477 25.252 20.6395 25.3122 20.804 25.3708C20.8862 25.4 20.9684 25.4292 21.0524 25.4585C21.1676 25.4986 21.2846 25.5389 21.3996 25.579C21.4946 25.612 21.5915 25.6448 21.6864 25.6758C21.8271 25.7234 21.9679 25.769 22.1086 25.8148C22.2566 25.8622 22.4046 25.9097 22.5543 25.9573C22.7352 26.0138 22.9179 26.0688 23.1007 26.1236C23.2231 26.1601 23.3455 26.1966 23.4679 26.2313C23.7127 26.3026 23.9594 26.372 24.2079 26.4378C24.2974 26.4616 24.3851 26.4853 24.4747 26.5054C24.6446 26.5456 24.8127 26.5804 24.9807 26.6113C25.1744 26.6461 25.3663 26.6734 25.5582 26.6936C25.8194 26.7228 26.0807 26.7393 26.3383 26.7429C26.574 26.7466 26.806 26.741 27.038 26.7246C27.2591 26.7082 27.4766 26.6845 27.6922 26.6516C27.9918 26.6058 28.2842 26.542 28.5728 26.4616C28.7666 26.4085 28.9584 26.3465 29.1466 26.277C29.3202 26.213 29.4919 26.1436 29.66 26.0669C29.8536 25.9792 30.0436 25.8842 30.23 25.78C30.3214 25.7289 30.4127 25.6758 30.5023 25.621C30.5882 25.5681 30.6722 25.5133 30.7563 25.4585C30.8878 25.3689 31.0175 25.2757 31.1454 25.1789C31.2532 25.0949 31.361 25.009 31.4651 24.9194C31.6534 24.7586 31.8343 24.5869 32.0078 24.4078C32.0936 24.3184 32.1759 24.2288 32.2582 24.1338C32.3604 24.015 32.461 23.8945 32.5578 23.7684C32.6346 23.6678 32.7112 23.5656 32.7843 23.4614C32.989 23.1709 33.1754 22.8621 33.3452 22.5369L33.5371 22.1532L35.2766 18.6872L35.2728 18.6945C35.8192 17.474 36.592 16.3741 37.5348 15.4422Z" fill="#133C9A"/>
</g>
</svg>
