<svg xmlns="http://www.w3.org/2000/svg" width="32" height="32" viewBox="0 0 128 128"><path fill="#de1c59" d="M27.255 80.719c0 7.33-5.978 13.317-13.309 13.317S.63 88.049.63 80.719s5.987-13.317 13.317-13.317h13.309zm6.709 0c0-7.33 5.987-13.317 13.317-13.317s13.317 5.986 13.317 13.317v33.335c0 7.33-5.986 13.317-13.317 13.317c-7.33 0-13.317-5.987-13.317-13.317zm0 0"/><path fill="#35c5f0" d="M47.281 27.255c-7.33 0-13.317-5.978-13.317-13.309S39.951.63 47.281.63s13.317 5.987 13.317 13.317v13.309zm0 6.709c7.33 0 13.317 5.987 13.317 13.317s-5.986 13.317-13.317 13.317H13.946C6.616 60.598.63 54.612.63 47.281c0-7.33 5.987-13.317 13.317-13.317zm0 0"/><path fill="#2eb57d" d="M100.745 47.281c0-7.33 5.978-13.317 13.309-13.317s13.317 5.987 13.317 13.317s-5.987 13.317-13.317 13.317h-13.309zm-6.709 0c0 7.33-5.987 13.317-13.317 13.317s-13.317-5.986-13.317-13.317V13.946C67.402 6.616 73.388.63 80.719.63c7.33 0 13.317 5.987 13.317 13.317zm0 0"/><path fill="#ebb02e" d="M80.719 100.745c7.33 0 13.317 5.978 13.317 13.309s-5.987 13.317-13.317 13.317s-13.317-5.987-13.317-13.317v-13.309zm0-6.709c-7.33 0-13.317-5.987-13.317-13.317s5.986-13.317 13.317-13.317h33.335c7.33 0 13.317 5.986 13.317 13.317c0 7.33-5.987 13.317-13.317 13.317zm0 0"/></svg>