<svg id="图层_1" data-name="图层 1" xmlns="http://www.w3.org/2000/svg" xmlns:xlink="http://www.w3.org/1999/xlink" viewBox="0 0 232.4409 232.4409"><defs><style>.cls-1{fill:url(#未命名的渐变_7);}.cls-2{fill:url(#未命名的渐变_7-2);}.cls-3{fill:url(#未命名的渐变_7-3);}.cls-4{fill:url(#未命名的渐变_7-4);}.cls-5{fill:url(#未命名的渐变_7-5);}.cls-6{fill:url(#未命名的渐变_7-6);}</style><linearGradient id="未命名的渐变_7" x1="113.6159" y1="176.9998" x2="113.6159" y2="195.8629" gradientUnits="userSpaceOnUse"><stop offset="0" stop-color="#3370FF"/><stop offset="1" stop-color="#7f3bf5"/></linearGradient><linearGradient id="未命名的渐变_7-2" x1="209.3027" y1="90.7042" x2="209.3027" y2="131.8553" xlink:href="#未命名的渐变_7"/><linearGradient id="未命名的渐变_7-3" x1="23.1384" y1="90.7042" x2="23.1384" y2="131.8553" xlink:href="#未命名的渐变_7"/><linearGradient id="未命名的渐变_7-4" x1="138.8087" y1="96.1512" x2="138.8087" y2="118.7847" xlink:href="#未命名的渐变_7"/><linearGradient id="未命名的渐变_7-5" x1="95.3622" y1="96.1512" x2="95.3622" y2="118.7847" xlink:href="#未命名的渐变_7"/><linearGradient id="未命名的渐变_7-6" x1="116.2206" y1="48.8968" x2="116.2206" y2="173.4002" xlink:href="#未命名的渐变_7"/></defs><title>MaxKB</title><path class="cls-1" d="M128.4532,177H98.7785L87.78,187.9985a4.6069,4.6069,0,0,0,3.2576,7.8644h45.1569a4.6069,4.6069,0,0,0,3.2575-7.8644Z"/><path class="cls-2" d="M210.0008,90.7042h-5.85v41.1511h5.85a4.4537,4.4537,0,0,0,4.4537-4.4537V95.1579A4.4537,4.4537,0,0,0,210.0008,90.7042Z"/><path class="cls-3" d="M28.29,90.7042H22.44a4.4538,4.4538,0,0,0-4.4538,4.4537v32.2437a4.4538,4.4538,0,0,0,4.4538,4.4537h5.85Z"/><path class="cls-4" d="M138.8087,96.1512a8.33,8.33,0,0,0-8.33,8.33v5.9727a8.33,8.33,0,1,0,16.6607,0v-5.9727A8.33,8.33,0,0,0,138.8087,96.1512Z"/><path class="cls-5" d="M95.3622,96.1512a8.33,8.33,0,0,0-8.33,8.33v5.9727a8.33,8.33,0,1,0,16.6607,0v-5.9727A8.33,8.33,0,0,0,95.3622,96.1512Z"/><path class="cls-6" d="M166.8344,48.8968H65.6064A33.7544,33.7544,0,0,0,31.89,82.6131v57.07A33.7548,33.7548,0,0,0,65.6064,173.4h101.228a33.7549,33.7549,0,0,0,33.7168-33.7168v-57.07A33.7545,33.7545,0,0,0,166.8344,48.8968Zm2.831,90.4457a6.0733,6.0733,0,0,1-6.0732,6.0733H114.2168a43.5922,43.5922,0,0,0-21.3313,5.5757l-16.5647,9.2946v-14.87h-7.472a6.0733,6.0733,0,0,1-6.0733-6.0733v-60.5a6.0733,6.0733,0,0,1,6.0733-6.0733h94.7434a6.0733,6.0733,0,0,1,6.0732,6.0733Z"/></svg>