<svg width="122" height="36" viewBox="0 0 122 36" fill="none" xmlns="http://www.w3.org/2000/svg">
<g clip-path="url(#clip0_5734_851)">
<path d="M75.3094 19.0802V27.0498H71.8274L71.8109 26.2433C70.5933 26.876 69.4033 27.1922 68.2412 27.1921H67.8972C66.7033 27.1921 65.7546 26.7335 65.051 25.8164C64.5855 25.1005 64.342 24.2629 64.3513 23.409V23.314C64.3513 21.7486 64.9008 20.7089 65.9997 20.195C66.4505 19.8947 67.5929 19.7445 69.4271 19.7444H71.3008V19.3056C71.3008 18.4043 71.1703 17.8865 70.9094 17.752C70.6249 17.5385 70.1228 17.4318 69.4033 17.4318H65.6678L65.7312 14.2393L70.032 14.123C72.5857 14.123 74.1669 14.7555 74.7758 16.0206C75.1315 16.7558 75.3094 17.7757 75.3094 19.0802ZM68.6032 22.3899C68.4844 22.5313 68.3597 22.99 68.3597 23.314C68.3597 24.0256 68.7234 24.3814 69.4508 24.3814C69.8855 24.3814 70.5022 24.2035 71.3008 23.8478V22.111C71.3008 22.111 69.0361 21.8747 68.6032 22.3899Z" fill="url(#paint0_linear_5734_851)"/>
<path d="M56.6308 27.3319L55.4162 15.1817L52.0028 27.3319H48.028L44.6928 15.1817L43.4348 27.3319L37.9399 27.2851L40.6207 9.35059H47.6212L50.0211 17.8847L52.4444 9.35059H59.281L62.0087 27.3319H56.6308Z" fill="url(#paint1_linear_5734_851)"/>
<path d="M85.3943 26.9654L83.5118 23.1105L81.6291 26.9654H77.2017L80.831 20.5778L77.3644 14.6084H81.6525L83.5118 18.2543L85.313 14.6084H89.6009L86.1576 20.5778L89.7637 26.9654H85.3943Z" fill="url(#paint2_linear_5734_851)"/>
<path d="M101.114 26.9656C101.029 26.8419 96.8966 20.1336 96.8966 20.1336L95.5396 22.2226V26.9656H90.9727V9.11621H95.5396V16.3526L99.7128 9.17639H104.477L99.514 17.1079L105.855 26.9656H101.114Z" fill="url(#paint3_linear_5734_851)"/>
<path d="M121.036 22.1453C121.036 24.7452 119.74 27.1284 115.097 27.1284H107.032V9.02713L113.203 8.90893C113.203 8.90893 116.858 8.74776 118.706 10.1533C120.068 11.1888 120.515 13.0023 120.384 14.5199C120.254 16.0375 119.553 17.0132 118.405 17.7272C119.979 18.3542 121.036 19.5453 121.036 22.1453ZM114.228 16.3327C115.766 16.3327 116.62 15.5561 116.62 14.4502C116.62 13.2738 115.833 12.5839 114.228 12.5839L111.576 12.5909V16.3327H114.228ZM114.365 23.5376C116.497 23.5376 117.022 22.3933 117.022 21.6318C117.022 20.4311 116.17 19.5633 114.752 19.5633H111.576V23.5376H114.365Z" fill="url(#paint4_linear_5734_851)"/>
<path d="M17.4213 26.7354H12.8296L11.1277 28.4372C11.028 28.5369 10.9601 28.6639 10.9326 28.8022C10.9051 28.9405 10.9193 29.0838 10.9732 29.2141C11.0272 29.3443 11.1185 29.4557 11.2358 29.534C11.353 29.6123 11.4908 29.6541 11.6318 29.6541H18.6192C18.7602 29.6541 18.898 29.6123 19.0153 29.534C19.1325 29.4557 19.2239 29.3443 19.2778 29.2141C19.3318 29.0838 19.3459 28.9405 19.3184 28.8022C19.2909 28.6639 19.223 28.5369 19.1233 28.4372L17.4213 26.7354Z" fill="url(#paint5_linear_5734_851)"/>
<path d="M30.04 13.3823H29.1348V19.7499H30.04C30.1305 19.7499 30.2201 19.732 30.3037 19.6974C30.3873 19.6628 30.4633 19.612 30.5273 19.548C30.5913 19.484 30.642 19.4081 30.6767 19.3244C30.7113 19.2408 30.7291 19.1512 30.7291 19.0607V14.0715C30.7291 13.8887 30.6565 13.7134 30.5273 13.5842C30.398 13.4549 30.2227 13.3823 30.04 13.3823Z" fill="url(#paint6_linear_5734_851)"/>
<path d="M1.92296 13.3823H1.01776C0.834985 13.3823 0.659698 13.4549 0.530458 13.5842C0.401219 13.7134 0.328613 13.8887 0.328613 14.0715V19.0607C0.328611 19.1512 0.346435 19.2408 0.381067 19.3244C0.415699 19.4081 0.466461 19.484 0.530455 19.548C0.594448 19.612 0.670419 19.6628 0.754031 19.6974C0.837643 19.732 0.927258 19.7499 1.01776 19.7499H1.92296V13.3823Z" fill="url(#paint7_linear_5734_851)"/>
<path d="M19.0238 14.2251C18.682 14.2251 18.3541 14.3609 18.1124 14.6026C17.8707 14.8443 17.7349 15.1722 17.7349 15.514V16.4382C17.7349 16.7801 17.8707 17.108 18.1124 17.3497C18.3541 17.5914 18.682 17.7272 19.0239 17.7272C19.3657 17.7272 19.6936 17.5914 19.9353 17.3497C20.1771 17.108 20.3129 16.7801 20.3129 16.4382V15.5141C20.3129 15.3448 20.2796 15.1772 20.2148 15.0208C20.15 14.8644 20.055 14.7223 19.9353 14.6026C19.8156 14.4829 19.6735 14.388 19.5171 14.3232C19.3607 14.2584 19.1931 14.2251 19.0238 14.2251Z" fill="url(#paint8_linear_5734_851)"/>
<path d="M12.3012 14.2251C11.9593 14.2251 11.6315 14.3609 11.3897 14.6026C11.148 14.8443 11.0122 15.1722 11.0122 15.514V16.4382C11.0122 16.7801 11.148 17.108 11.3897 17.3497C11.6315 17.5914 11.9593 17.7272 12.3012 17.7272C12.6431 17.7272 12.9709 17.5914 13.2127 17.3497C13.4544 17.108 13.5902 16.7801 13.5902 16.4382V15.5141C13.5902 15.3448 13.5569 15.1772 13.4921 15.0208C13.4273 14.8644 13.3324 14.7223 13.2127 14.6026C13.093 14.4829 12.9509 14.388 12.7945 14.3232C12.6381 14.2584 12.4704 14.2251 12.3012 14.2251Z" fill="url(#paint9_linear_5734_851)"/>
<path d="M23.3607 6.91309H7.69709C6.3139 6.91465 4.98782 7.46481 4.00976 8.44287C3.0317 9.42092 2.48154 10.747 2.47998 12.1302V20.9609C2.48154 22.3441 3.03169 23.6702 4.00975 24.6483C4.98781 25.6264 6.3139 26.1766 7.69709 26.1781H23.3607C24.7439 26.1766 26.07 25.6264 27.0481 24.6483C28.0262 23.6703 28.5764 22.3442 28.5779 20.9609V12.1302C28.5763 10.747 28.0262 9.4209 27.0481 8.44284C26.07 7.46478 24.7439 6.91463 23.3607 6.91309ZM23.7988 20.9082C23.7988 21.1575 23.6998 21.3965 23.5235 21.5727C23.3473 21.749 23.1083 21.848 22.859 21.848H15.2189C14.0629 21.848 12.9263 22.1451 11.9181 22.7108L9.355 24.149V21.848H8.19882C7.94958 21.848 7.71055 21.749 7.53432 21.5728C7.35808 21.3966 7.25907 21.1575 7.25906 20.9083V11.5468C7.25907 11.2976 7.35808 11.0585 7.53432 10.8823C7.71056 10.7061 7.94958 10.6071 8.19882 10.6071H22.859C23.1082 10.6071 23.3472 10.7061 23.5235 10.8823C23.6997 11.0585 23.7987 11.2976 23.7987 11.5468L23.7988 20.9082Z" fill="url(#paint10_linear_5734_851)"/>
</g>
<defs>
<linearGradient id="paint0_linear_5734_851" x1="69.8304" y1="10.0003" x2="69.8304" y2="27.3566" gradientUnits="userSpaceOnUse">
<stop stop-color="#3370FF"/>
<stop offset="1" stop-color="#7F3BF5"/>
</linearGradient>
<linearGradient id="paint1_linear_5734_851" x1="49.9743" y1="10.5855" x2="49.9743" y2="27.4838" gradientUnits="userSpaceOnUse">
<stop stop-color="#3370FF"/>
<stop offset="1" stop-color="#7F3BF5"/>
</linearGradient>
<linearGradient id="paint2_linear_5734_851" x1="83.4827" y1="9.95634" x2="83.4827" y2="26.918" gradientUnits="userSpaceOnUse">
<stop stop-color="#3370FF"/>
<stop offset="1" stop-color="#7F3BF5"/>
</linearGradient>
<linearGradient id="paint3_linear_5734_851" x1="98.4139" y1="9.57325" x2="98.4139" y2="26.5967" gradientUnits="userSpaceOnUse">
<stop stop-color="#3370FF"/>
<stop offset="1" stop-color="#7F3BF5"/>
</linearGradient>
<linearGradient id="paint4_linear_5734_851" x1="114.034" y1="9.05828" x2="114.034" y2="26.3934" gradientUnits="userSpaceOnUse">
<stop stop-color="#3370FF"/>
<stop offset="1" stop-color="#7F3BF5"/>
</linearGradient>
<linearGradient id="paint5_linear_5734_851" x1="15.1255" y1="26.7354" x2="15.1255" y2="29.6542" gradientUnits="userSpaceOnUse">
<stop stop-color="#3370FF"/>
<stop offset="1" stop-color="#7F3BF5"/>
</linearGradient>
<linearGradient id="paint6_linear_5734_851" x1="29.9319" y1="13.3823" x2="29.9319" y2="19.7499" gradientUnits="userSpaceOnUse">
<stop stop-color="#3370FF"/>
<stop offset="1" stop-color="#7F3BF5"/>
</linearGradient>
<linearGradient id="paint7_linear_5734_851" x1="1.12576" y1="13.3823" x2="1.12576" y2="19.7499" gradientUnits="userSpaceOnUse">
<stop stop-color="#3370FF"/>
<stop offset="1" stop-color="#7F3BF5"/>
</linearGradient>
<linearGradient id="paint8_linear_5734_851" x1="19.0238" y1="14.2251" x2="19.0238" y2="17.7273" gradientUnits="userSpaceOnUse">
<stop stop-color="#3370FF"/>
<stop offset="1" stop-color="#7F3BF5"/>
</linearGradient>
<linearGradient id="paint9_linear_5734_851" x1="12.3012" y1="14.2251" x2="12.3012" y2="17.7273" gradientUnits="userSpaceOnUse">
<stop stop-color="#3370FF"/>
<stop offset="1" stop-color="#7F3BF5"/>
</linearGradient>
<linearGradient id="paint10_linear_5734_851" x1="15.5289" y1="6.91309" x2="15.5289" y2="26.1782" gradientUnits="userSpaceOnUse">
<stop stop-color="#3370FF"/>
<stop offset="1" stop-color="#7F3BF5"/>
</linearGradient>
<clipPath id="clip0_5734_851">
<rect width="121" height="36" fill="white"/>
</clipPath>
</defs>
</svg>
