<svg width="20" height="20" viewBox="0 0 20 20" fill="none" xmlns="http://www.w3.org/2000/svg">
<path d="M0.833496 3.33333C0.833496 2.8731 1.20659 2.5 1.66683 2.5H8.6518C8.96744 2.5 9.256 2.67834 9.39716 2.96066L10.0002 4.16667H18.3335C18.7937 4.16667 19.1668 4.53976 19.1668 5V16.6667C19.1668 17.1269 18.7937 17.5 18.3335 17.5H1.66683C1.20659 17.5 0.833496 17.1269 0.833496 16.6667V3.33333Z" fill="#FFA53D"/>
<path d="M0.833496 4.99999C0.833496 4.53975 1.20659 4.16666 1.66683 4.16666H18.3335C18.7937 4.16666 19.1668 4.53975 19.1668 4.99999V16.6667C19.1668 17.1269 18.7937 17.5 18.3335 17.5H1.66683C1.20659 17.5 0.833496 17.1269 0.833496 16.6667V4.99999Z" fill="#FFC60A"/>
</svg>
