<svg width="20" height="20" viewBox="0 0 20 20" fill="none" xmlns="http://www.w3.org/2000/svg">
<g clip-path="url(#clip0_332_3845)">
<path opacity="0.5" d="M11.5903 10.7326C11.5903 8.64041 13.2864 6.9444 15.3785 6.9444C17.4706 6.9444 19.1667 8.64042 19.1667 10.7326V15.3784C19.1667 17.4705 17.4706 19.1666 15.3785 19.1666C13.2864 19.1666 11.5903 17.4705 11.5903 15.3784V10.7326Z" fill="white"/>
<path fill-rule="evenodd" clip-rule="evenodd" d="M14.6212 0.833374H14.6211V2.36113H13.1059V0.833374H2.83347C1.72892 0.833374 0.833495 1.72878 0.833474 2.83333L0.833313 11.1665C0.833228 15.5848 4.41497 19.1666 8.83331 19.1666H15.1666C15.5076 19.1666 15.8387 19.1239 16.1547 19.0436C15.2624 18.7368 14.6212 17.8902 14.6212 16.8937V0.833374ZM4.51881 6.35876C4.51881 5.89468 4.89501 5.51848 5.35909 5.51848H10.3457C10.8098 5.51848 11.186 5.89468 11.186 6.35876C11.186 6.82283 10.8098 7.19904 10.3457 7.19904H5.35909C4.89501 7.19904 4.51881 6.82283 4.51881 6.35876ZM5.35909 9.4398C4.89501 9.4398 4.51881 9.816 4.51881 10.2801C4.51881 10.7441 4.89501 11.1204 5.35909 11.1204H10.3457C10.8098 11.1204 11.186 10.7441 11.186 10.2801C11.186 9.816 10.8098 9.4398 10.3457 9.4398H5.35909Z" fill="white"/>
<ellipse cx="13.1058" cy="2.36108" rx="1.51527" ry="1.52776" fill="white"/>
</g>
<defs>
<clipPath id="clip0_332_3845">
<rect width="20" height="20" fill="white"/>
</clipPath>
</defs>
</svg>
