<svg width="32" height="32" viewBox="0 0 32 32" fill="none" xmlns="http://www.w3.org/2000/svg">
<path d="M18.4383 2.66666H18.5646H18.6762L18.79 2.66723L18.9059 2.66784L19.0239 2.66868L19.144 2.66975L19.2662 2.67107L19.3906 2.67264L19.4746 2.67384L19.5595 2.67515L19.6886 2.67735L19.8196 2.67984L19.9527 2.68262L20.0426 2.68464L20.1789 2.68793L20.3172 2.69154L20.4575 2.69547L20.552 2.69829L20.6954 2.70279L20.8407 2.70765L20.9386 2.71108L21.0373 2.71469L21.1369 2.71845L21.2372 2.72239L21.3383 2.7265L21.4403 2.73078L21.5947 2.73753L21.6986 2.74226L21.8559 2.74971L21.9618 2.7549L22.0684 2.76029L22.2298 2.76873L22.3383 2.7746L22.4476 2.78068L22.5576 2.78695L22.6683 2.79344L22.7798 2.80013L22.892 2.80703L23.0049 2.81415L23.1185 2.82148L23.2329 2.82903L23.3479 2.83681C27.4788 3.11911 28.5728 6.09394 28.6892 6.44991L28.6954 6.46902L28.7001 6.48468L30.4934 6.58232C30.5891 6.58232 30.6667 6.6599 30.6667 6.7556C30.6667 6.82419 30.6268 6.88347 30.569 6.91155C28.7283 7.90759 28.1659 9.9315 28.4965 11.2499C28.6031 11.6747 28.7686 12.04 28.9529 12.426L29.0694 12.669C29.496 13.5614 29.975 14.6418 30.0532 16.8164C30.2283 21.6841 25.9495 26.059 20.8865 26.059L20.8311 26.059L20.7129 26.0592L20.5169 26.0598L20.3738 26.0604L20.1406 26.0617L19.9727 26.0628L19.7949 26.064L19.5096 26.0662L19.2019 26.0688L18.8719 26.0717L18.3971 26.0763L18.0149 26.0802L17.3284 26.0876L16.5798 26.0961L15.7692 26.1058L15.253 26.112L14.5301 26.1211L13.5705 26.1333L12.5489 26.1467L11.6869 26.1582L10.3196 26.1767L9.35831 26.19L7.58059 26.2149L5.68125 26.2419L3.95645 26.2668L3.06055 26.2799L13.8876 13.9678L13.9857 13.856L14.0835 13.7447L14.1811 13.6339L14.6638 13.087L14.7591 12.9787L14.8541 12.8708L14.9485 12.7632C14.9642 12.7453 14.9799 12.7274 14.9956 12.7095L15.0893 12.6023C15.1048 12.5844 15.1204 12.5666 15.1359 12.5487L15.2289 12.4418L15.3212 12.3351C16.3955 11.0906 17.3518 9.8759 18.0313 8.48283C18.7856 6.35249 18.0178 4.76283 17.2339 3.79963C17.1734 3.72526 17.1128 3.65463 17.0528 3.58777C16.7856 3.24574 16.9675 2.6759 17.4764 2.6759C17.5178 2.6759 17.5601 2.67526 17.6033 2.67444L17.7017 2.67245C17.7239 2.67203 17.7464 2.67164 17.769 2.67135L17.8629 2.67023L17.9592 2.66924L18.0246 2.66866L18.1926 2.66751L18.3316 2.66692L18.4383 2.66666Z" fill="#31CC79"/>
<path d="M18.4383 2.66666H18.5646H18.6762L18.79 2.66723L18.9059 2.66784L19.0239 2.66868L19.144 2.66975L19.2662 2.67107L19.3906 2.67264L19.4746 2.67384L19.5595 2.67515L19.6886 2.67735L19.8196 2.67984L19.9527 2.68262L20.0426 2.68464L20.1789 2.68793L20.3172 2.69154L20.4575 2.69547L20.552 2.69829L20.6954 2.70279L20.8407 2.70765L20.9386 2.71108L21.0373 2.71469L21.1369 2.71845L21.2372 2.72239L21.3383 2.7265L21.4403 2.73078L21.5947 2.73753L21.6986 2.74226L21.8559 2.74971L21.9618 2.7549L22.0684 2.76029L22.2298 2.76873L22.3383 2.7746L22.4476 2.78068L22.5576 2.78695L22.6683 2.79344L22.7798 2.80013L22.892 2.80703L23.0049 2.81415L23.1185 2.82148L23.2329 2.82903L23.3479 2.83681C27.4788 3.11911 28.5728 6.09394 28.6892 6.44991L28.6954 6.46902L28.7001 6.48468L30.4934 6.58232C30.5891 6.58232 30.6667 6.6599 30.6667 6.7556C30.6667 6.82419 30.6268 6.88347 30.569 6.91155C28.7283 7.90759 28.1659 9.9315 28.4965 11.2499C28.6031 11.6747 28.7686 12.04 28.9529 12.426L29.0694 12.669C29.496 13.5614 29.975 14.6418 30.0532 16.8164C30.2283 21.6841 25.9495 26.059 20.8865 26.059L20.8311 26.059L20.7129 26.0592L20.5169 26.0598L20.3738 26.0604L20.1406 26.0617L19.9727 26.0628L19.7949 26.064L19.5096 26.0662L19.2019 26.0688L18.8719 26.0717L18.3971 26.0763L18.0149 26.0802L17.3284 26.0876L16.5798 26.0961L15.7692 26.1058L15.253 26.112L14.5301 26.1211L13.5705 26.1333L12.5489 26.1467L11.6869 26.1582L10.3196 26.1767L9.35831 26.19L7.58059 26.2149L5.68125 26.2419L3.95645 26.2668L3.06055 26.2799L13.8876 13.9678L13.9857 13.856L14.0835 13.7447L14.1811 13.6339L14.6638 13.087L14.7591 12.9787L14.8541 12.8708L14.9485 12.7632C14.9642 12.7453 14.9799 12.7274 14.9956 12.7095L15.0893 12.6023C15.1048 12.5844 15.1204 12.5666 15.1359 12.5487L15.2289 12.4418L15.3212 12.3351C16.3955 11.0906 17.3518 9.8759 18.0313 8.48283C18.7856 6.35249 18.0178 4.76283 17.2339 3.79963C17.1734 3.72526 17.1128 3.65463 17.0528 3.58777C16.7856 3.24574 16.9675 2.6759 17.4764 2.6759C17.5178 2.6759 17.5601 2.67526 17.6033 2.67444L17.7017 2.67245C17.7239 2.67203 17.7464 2.67164 17.769 2.67135L17.8629 2.67023L17.9592 2.66924L18.0246 2.66866L18.1926 2.66751L18.3316 2.66692L18.4383 2.66666Z" fill="url(#paint0_radial_1602_7499)" fill-opacity="0.6"/>
<path d="M13.8876 13.9678C9.20152 19.2412 3.62434 25.6574 1.50732 28.0676C1.0995 28.5318 1.49477 28.9703 1.81067 29.0246C17.605 31.7399 22.6197 24.2969 23.7368 20.8945C25.2651 16.2393 23.1057 13.9678 21.8836 13.2271C17.7395 10.7152 14.6648 13.0932 13.8876 13.9678Z" fill="#93E65C"/>
<path style="mix-blend-mode:overlay" d="M13.8876 13.9678C9.20152 19.2412 3.62434 25.6574 1.50732 28.0676C1.0995 28.5318 1.49477 28.9703 1.81067 29.0246C17.605 31.7399 22.6197 24.2969 23.7368 20.8945C25.2651 16.2393 23.1057 13.9678 21.8836 13.2271C17.7395 10.7152 14.6648 13.0932 13.8876 13.9678Z" fill="url(#paint1_linear_1602_7499)" fill-opacity="0.75"/>
<defs>
<radialGradient id="paint0_radial_1602_7499" cx="0" cy="0" r="1" gradientUnits="userSpaceOnUse" gradientTransform="translate(1882.01 643.886) rotate(-50.7377) scale(2502.16 2099.64)">
<stop stop-color="#178F67"/>
<stop offset="0.546848" stop-color="#31CC79" stop-opacity="0.55"/>
<stop offset="1" stop-color="#53E68D" stop-opacity="0.8"/>
</radialGradient>
<linearGradient id="paint1_linear_1602_7499" x1="1869.47" y1="1012.95" x2="-107.565" y2="1646.39" gradientUnits="userSpaceOnUse">
<stop stop-color="white" stop-opacity="0"/>
<stop offset="1" stop-color="#D6F056"/>
</linearGradient>
</defs>
</svg>
