<svg width="16" height="16" viewBox="0 0 16 16" fill="none" xmlns="http://www.w3.org/2000/svg">
<path d="M1.99967 2C1.63149 2 1.33301 2.29848 1.33301 2.66667V13.3333C1.33301 13.7015 1.63149 14 1.99967 14H13.9997C14.3679 14 14.6663 13.7015 14.6663 13.3333V2.66667C14.6663 2.29848 14.3679 2 13.9997 2H1.99967ZM13.333 3.33328V10.0001L11.9021 8.56907C11.7719 8.43893 11.5608 8.43893 11.4306 8.56907L9.56874 10.431C9.43854 10.5612 9.22747 10.5612 9.09727 10.431L5.56871 6.9024C5.43853 6.77227 5.22748 6.77227 5.09731 6.9024L2.66634 9.3334V3.33328H13.333Z" fill="white"/>
<path opacity="0.5" d="M10.333 5.33333C10.333 5.14924 10.4823 5 10.6663 5H11.6663C11.8504 5 11.9997 5.14924 11.9997 5.33333V6.33333C11.9997 6.51743 11.8504 6.66667 11.6663 6.66667H10.6663C10.4823 6.66667 10.333 6.51743 10.333 6.33333V5.33333Z" fill="white"/>
</svg>
