<svg width="22" height="22" viewBox="0 0 22 22" fill="none" xmlns="http://www.w3.org/2000/svg">
<path d="M6.98262 2.70361H5.98155C5.17745 2.70361 4.55609 2.95232 4.11749 3.46751C3.71543 3.9294 3.51441 4.56895 3.51441 5.36838V8.69045C3.51441 9.18787 3.40476 9.56094 3.18545 9.80965C2.97469 10.0292 2.6275 10.1764 2.14389 10.2413C1.95529 10.2666 1.81483 10.4233 1.81482 10.6084V11.4085C1.81481 11.5847 1.94968 11.7334 2.12951 11.7554C2.62062 11.8156 2.97261 11.9537 3.18545 12.1902C3.40476 12.4211 3.51441 12.7942 3.51441 13.3094V16.6492C3.51441 17.4309 3.71543 18.0704 4.11749 18.5323C4.55609 19.0297 5.17745 19.2962 5.98155 19.2962H6.98262C7.20691 19.2962 7.38874 19.1195 7.38874 18.9014V18.252C7.38874 18.034 7.20691 17.8572 6.98262 17.8572H6.3105C5.61605 17.8572 5.2871 17.4664 5.2871 16.7203V13.2205C5.2871 12.1546 4.75712 11.4263 3.71543 10.9999C4.75712 10.6268 5.2871 9.88071 5.2871 8.77927V5.29732C5.2871 4.51565 5.61605 4.14259 6.3105 4.14259H6.98262C7.20691 4.14259 7.38874 3.96584 7.38874 3.74781V3.09839C7.38874 2.88036 7.20691 2.70361 6.98262 2.70361ZM16.0185 2.70361H15.0174C14.7931 2.70361 14.6113 2.88036 14.6113 3.09839V3.74781C14.6113 3.96584 14.7931 4.14259 15.0174 4.14259H15.6895C16.3657 4.14259 16.7129 4.51565 16.7129 5.29732V8.77927C16.7129 9.88071 17.2246 10.6268 18.2846 10.9999C17.2246 11.4263 16.7129 12.1546 16.7129 13.2205V16.7203C16.7129 17.4664 16.3657 17.8572 15.6895 17.8572H15.0174C14.7931 17.8572 14.6113 18.034 14.6113 18.252V18.9014C14.6113 19.1195 14.7931 19.2962 15.0174 19.2962H16.0185C16.8226 19.2962 17.4439 19.0297 17.8825 18.5323C18.2846 18.0704 18.4856 17.4309 18.4856 16.6492V13.3094C18.4856 12.7942 18.5953 12.4211 18.8146 12.1902C19.0209 11.961 19.3579 11.8242 19.8257 11.7612L19.8331 11.7602C20.0347 11.7339 20.1852 11.5667 20.1852 11.3689V10.6149C20.1852 10.4263 20.0421 10.2665 19.8499 10.2405C19.3701 10.1756 19.0277 10.0314 18.8328 9.82741C18.5953 9.5787 18.4856 9.18787 18.4856 8.69045V5.36838C18.4856 4.56895 18.2846 3.9294 17.8825 3.46751C17.4439 2.95232 16.8226 2.70361 16.0185 2.70361Z" fill="white"/>
<path d="M7.44443 8.68878C7.44443 8.49241 7.60362 8.33323 7.79999 8.33323H14.2C14.3964 8.33323 14.5555 8.49241 14.5555 8.68878V9.75545C14.5555 9.95182 14.3964 10.111 14.2 10.111H7.79999C7.60362 10.111 7.44443 9.95182 7.44443 9.75545V8.68878Z" fill="white"/>
<path d="M7.44443 12.2443C7.44443 12.048 7.60362 11.8888 7.79999 11.8888H14.2C14.3964 11.8888 14.5555 12.048 14.5555 12.2443V13.311C14.5555 13.5074 14.3964 13.6666 14.2 13.6666H7.79999C7.60362 13.6666 7.44443 13.5074 7.44443 13.311V12.2443Z" fill="white"/>
</svg>
