<svg width="25" height="10" viewBox="0 0 25 10" fill="none" xmlns="http://www.w3.org/2000/svg">
<path d="M19.884 4.842H21.226C21.424 4.842 21.6146 4.82733 21.798 4.798C21.9813 4.76866 22.1426 4.71366 22.282 4.633C22.4213 4.545 22.5313 4.424 22.612 4.27C22.7 4.116 22.744 3.91433 22.744 3.665C22.744 3.41566 22.7 3.214 22.612 3.06C22.5313 2.906 22.4213 2.78866 22.282 2.708C22.1426 2.62 21.9813 2.56133 21.798 2.532C21.6146 2.50266 21.424 2.488 21.226 2.488H19.884V4.842ZM18.157 1.146H21.699C22.1903 1.146 22.6083 1.21933 22.953 1.366C23.2976 1.50533 23.5763 1.69233 23.789 1.927C24.009 2.16166 24.1666 2.42933 24.262 2.73C24.3646 3.03066 24.416 3.34233 24.416 3.665C24.416 3.98033 24.3646 4.292 24.262 4.6C24.1666 4.90066 24.009 5.16833 23.789 5.403C23.5763 5.63766 23.2976 5.82833 22.953 5.975C22.6083 6.11433 22.1903 6.184 21.699 6.184H19.884V9H18.157V1.146Z" fill="white"/>
<path d="M15.2396 3.78598C15.2103 3.58798 15.1443 3.40832 15.0416 3.24698C14.9389 3.07832 14.8106 2.93165 14.6566 2.80698C14.5026 2.68232 14.3266 2.58698 14.1286 2.52098C13.9379 2.44765 13.7363 2.41098 13.5236 2.41098C13.1349 2.41098 12.8049 2.48798 12.5336 2.64198C12.2623 2.78865 12.0423 2.99032 11.8736 3.24698C11.7049 3.49632 11.5803 3.78232 11.4996 4.10498C11.4263 4.42765 11.3896 4.76132 11.3896 5.10598C11.3896 5.43598 11.4263 5.75865 11.4996 6.07398C11.5803 6.38198 11.7049 6.66065 11.8736 6.90998C12.0423 7.15932 12.2623 7.36099 12.5336 7.51499C12.8049 7.66165 13.1349 7.73498 13.5236 7.73498C14.0516 7.73498 14.4623 7.57365 14.7556 7.25098C15.0563 6.92832 15.2396 6.50298 15.3056 5.97498H16.9776C16.9336 6.46632 16.8199 6.90998 16.6366 7.30598C16.4533 7.70198 16.2113 8.03932 15.9106 8.31798C15.6099 8.59665 15.2579 8.80932 14.8546 8.95599C14.4513 9.10265 14.0076 9.17598 13.5236 9.17598C12.9223 9.17598 12.3796 9.07332 11.8956 8.86798C11.4189 8.65532 11.0156 8.36565 10.6856 7.99898C10.3556 7.63232 10.1026 7.20332 9.9266 6.71198C9.7506 6.21332 9.6626 5.67798 9.6626 5.10598C9.6626 4.51932 9.7506 3.97665 9.9266 3.47798C10.1026 2.97198 10.3556 2.53198 10.6856 2.15798C11.0156 1.78398 11.4189 1.49065 11.8956 1.27798C12.3796 1.06532 12.9223 0.958984 13.5236 0.958984C13.9563 0.958984 14.3633 1.02132 14.7446 1.14598C15.1333 1.27065 15.4779 1.45398 15.7786 1.69598C16.0866 1.93065 16.3396 2.22398 16.5376 2.57598C16.7356 2.92798 16.8603 3.33132 16.9116 3.78598H15.2396Z" fill="white"/>
<path d="M0.0241699 1.146H2.45517L4.29217 6.547H4.31417L6.05217 1.146H8.48317V9H6.86617V3.434H6.84417L4.91917 9H3.58817L1.66317 3.489H1.64117V9H0.0241699V1.146Z" fill="white"/>
</svg>
