<svg width="20" height="20" viewBox="0 0 20 20" fill="none" xmlns="http://www.w3.org/2000/svg">
<path d="M15.7284 5.83293C15.3584 7.27062 14.0533 8.33293 12.5001 8.33293C10.9469 8.33293 9.6418 7.27062 9.27176 5.83293H2.20089C2.01516 5.83293 1.94781 5.81359 1.87991 5.77727C1.812 5.74096 1.75871 5.68767 1.7224 5.61977C1.68609 5.55187 1.66675 5.48452 1.66675 5.29878V4.7004C1.66675 4.51467 1.68609 4.44732 1.7224 4.37942C1.75871 4.31152 1.812 4.25823 1.87991 4.22191C1.94781 4.1856 2.01516 4.16626 2.20089 4.16626H9.27176C9.6418 2.72857 10.9469 1.66626 12.5001 1.66626C14.0533 1.66626 15.3584 2.72857 15.7284 4.16626H17.7993C17.985 4.16626 18.0524 4.1856 18.1203 4.22191C18.1882 4.25823 18.2414 4.31152 18.2778 4.37942C18.3141 4.44732 18.3334 4.51467 18.3334 4.7004V5.29878C18.3334 5.48452 18.3141 5.55187 18.2778 5.61977C18.2414 5.68767 18.1882 5.74096 18.1203 5.77727C18.0524 5.81359 17.985 5.83293 17.7993 5.83293H15.7284ZM12.5001 6.66626C13.4206 6.66626 14.1667 5.92007 14.1667 4.99959C14.1667 4.07912 13.4206 3.33293 12.5001 3.33293C11.5796 3.33293 10.8334 4.07912 10.8334 4.99959C10.8334 5.92007 11.5796 6.66626 12.5001 6.66626Z" fill="white"/>
<path d="M10.7284 15.8329C10.3584 17.2706 9.05328 18.3329 7.50008 18.3329C5.94688 18.3329 4.6418 17.2706 4.27176 15.8329H2.20089C2.01516 15.8329 1.94781 15.8136 1.87991 15.7773C1.812 15.741 1.75871 15.6877 1.7224 15.6198C1.68609 15.5519 1.66675 15.4845 1.66675 15.2988V14.7004C1.66675 14.5147 1.68609 14.4473 1.7224 14.3794C1.75871 14.3115 1.812 14.2582 1.87991 14.2219C1.94781 14.1856 2.01516 14.1663 2.20089 14.1663H4.27176C4.6418 12.7286 5.94688 11.6663 7.50008 11.6663C9.05328 11.6663 10.3584 12.7286 10.7284 14.1663H17.7993C17.985 14.1663 18.0524 14.1856 18.1203 14.2219C18.1882 14.2582 18.2414 14.3115 18.2778 14.3794C18.3141 14.4473 18.3334 14.5147 18.3334 14.7004V15.2988C18.3334 15.4845 18.3141 15.5519 18.2778 15.6198C18.2414 15.6877 18.1882 15.741 18.1203 15.7773C18.0524 15.8136 17.985 15.8329 17.7993 15.8329H10.7284ZM7.50008 16.6663C8.42056 16.6663 9.16675 15.9201 9.16675 14.9996C9.16675 14.0791 8.42056 13.3329 7.50008 13.3329C6.57961 13.3329 5.83342 14.0791 5.83342 14.9996C5.83342 15.9201 6.57961 16.6663 7.50008 16.6663Z" fill="white"/>
</svg>
