<svg width="22" height="22" viewBox="0 0 22 22" fill="none" xmlns="http://www.w3.org/2000/svg">
<path fill-rule="evenodd" clip-rule="evenodd" d="M15.8888 3.44443V5.22221H18.9999C19.4908 5.22221 19.8888 5.62018 19.8888 6.1111V9.22221H15.4443V8.33332H13.6666V9.22221H8.33324V8.33332H6.55546V9.22221H2.11102V6.1111C2.11102 5.62018 2.50898 5.22221 2.9999 5.22221H6.11102V3.44443C6.11102 2.95351 6.50898 2.55554 6.9999 2.55554H14.9999C15.4908 2.55554 15.8888 2.95351 15.8888 3.44443ZM7.88879 5.22221H14.111V4.33332H7.88879V5.22221Z" fill="white"/>
<path d="M2.11102 11H6.55546V11.8889H8.33324V11H13.6666V11.8889H15.4443V11H19.8888V18.5555C19.8888 19.0465 19.4908 19.4444 18.9999 19.4444H2.9999C2.50898 19.4444 2.11102 19.0465 2.11102 18.5555V11Z" fill="white"/>
</svg>
