<svg width="20" height="20" viewBox="0 0 20 20" fill="none" xmlns="http://www.w3.org/2000/svg">
<path d="M10.5892 18.5008L14.1666 15.4259H17.9166C18.3768 15.4259 18.7499 15.0449 18.7499 14.575V2.10096C18.7499 1.63099 18.3768 1.25 17.9166 1.25H1.66658C1.20635 1.25 0.833252 1.63099 0.833252 2.10096V14.575C0.833252 15.0449 1.20635 15.4259 1.66658 15.4259H5.83325L9.41066 18.5008C9.7361 18.8331 10.2637 18.8331 10.5892 18.5008ZM5.41658 7.08333H6.24992C6.71015 7.08333 7.08325 7.45643 7.08325 7.91667V8.75C7.08325 9.21024 6.71015 9.58333 6.24992 9.58333H5.41658C4.95635 9.58333 4.58325 9.21024 4.58325 8.75V7.91667C4.58325 7.45643 4.95635 7.08333 5.41658 7.08333ZM8.74992 7.91667C8.74992 7.45643 9.12301 7.08333 9.58325 7.08333H10.4166C10.8768 7.08333 11.2499 7.45643 11.2499 7.91667V8.75C11.2499 9.21024 10.8768 9.58333 10.4166 9.58333H9.58325C9.12301 9.58333 8.74992 9.21024 8.74992 8.75V7.91667ZM13.7499 7.08333H14.5832C15.0435 7.08333 15.4166 7.45643 15.4166 7.91667V8.75C15.4166 9.21024 15.0435 9.58333 14.5832 9.58333H13.7499C13.2897 9.58333 12.9166 9.21024 12.9166 8.75V7.91667C12.9166 7.45643 13.2897 7.08333 13.7499 7.08333Z" fill="white"/>
</svg>
