<svg width="22" height="22" viewBox="0 0 22 22" fill="none" xmlns="http://www.w3.org/2000/svg">
<path fill-rule="evenodd" clip-rule="evenodd" d="M4.77756 1.66699C4.28664 1.66699 3.88867 2.06496 3.88867 2.55588V19.4448C3.88867 19.9357 4.28664 20.3337 4.77756 20.3337H17.222C17.7129 20.3337 18.1109 19.9357 18.1109 19.4448V6.3069C18.1109 6.19036 18.0651 6.07847 17.9834 5.99536L13.8597 1.79989C13.7761 1.71488 13.6619 1.66699 13.5427 1.66699H4.77756ZM7.04915 9.02062C7.04915 8.77516 7.24814 8.57617 7.4936 8.57617H14.5059C14.7514 8.57617 14.9504 8.77516 14.9504 9.02062V9.74789C14.9504 9.99335 14.7514 10.1923 14.5059 10.1923H7.4936C7.24814 10.1923 7.04915 9.99335 7.04915 9.74789V9.02062ZM7.04915 13.061C7.04915 12.8156 7.24814 12.6166 7.4936 12.6166H10.5553C10.8008 12.6166 10.9998 12.8156 10.9998 13.061V13.7883C10.9998 14.0338 10.8008 14.2327 10.5553 14.2327H7.4936C7.24814 14.2327 7.04915 14.0338 7.04915 13.7883V13.061Z" fill="white"/>
<path opacity="0.5" d="M13.6665 1.68457C13.7391 1.70561 13.8058 1.74502 13.8597 1.7999L17.9835 5.99537C18.0172 6.02971 18.0449 6.06897 18.0657 6.11145H14.6755C14.1183 6.11145 13.6665 5.6597 13.6665 5.10244V1.68457Z" fill="#3370FF"/>
</svg>
