<svg width="16" height="16" viewBox="0 0 16 16" fill="none" xmlns="http://www.w3.org/2000/svg">
<path d="M1.99998 1.33334H6.99998C7.18407 1.33334 7.33331 1.48258 7.33331 1.66668V2.33334C7.33331 2.51744 7.18407 2.66668 6.99998 2.66668H2.66665V6.33334C2.66665 6.51744 2.51741 6.66668 2.33331 6.66668H1.66665C1.48255 6.66668 1.33331 6.51744 1.33331 6.33334V2.00001C1.33331 1.63182 1.63179 1.33334 1.99998 1.33334ZM14 14.6667H9.66665C9.48255 14.6667 9.33331 14.5174 9.33331 14.3333V13.6667C9.33331 13.4826 9.48255 13.3333 9.66665 13.3333H13.3333V9.66668C13.3333 9.48258 13.4826 9.33334 13.6666 9.33334H14.3333C14.5174 9.33334 14.6666 9.48258 14.6666 9.66668V14C14.6666 14.3682 14.3682 14.6667 14 14.6667Z" fill="white"/>
<path fill-rule="evenodd" clip-rule="evenodd" d="M10.7033 1.48695C10.7776 1.29397 10.9631 1.16666 11.1699 1.16666H11.87C12.0768 1.16666 12.2623 1.29397 12.3366 1.48695L14.6475 7.48695C14.7737 7.81448 14.5319 8.16666 14.1809 8.16666H13.8107C13.5981 8.16666 13.4088 8.0323 13.3387 7.83167L12.7962 6.28018C12.7729 6.21331 12.7098 6.16852 12.6389 6.16852H10.468C10.3995 6.16852 10.3379 6.21049 10.3129 6.27429L9.69462 7.84935C9.61948 8.04076 9.43482 8.16666 9.22919 8.16666H8.85893C8.50794 8.16666 8.26619 7.81448 8.39234 7.48695L10.7033 1.48695ZM11.5194 2.85876L10.7668 4.90148H12.2656L11.5194 2.85876Z" fill="white"/>
<path fill-rule="evenodd" clip-rule="evenodd" d="M1.33331 14.3333C1.33331 14.5174 1.48255 14.6667 1.66665 14.6667H7.66665C7.85074 14.6667 7.99998 14.5174 7.99998 14.3333V8.33333C7.99998 8.14924 7.85074 8 7.66665 8H1.66665C1.48255 8 1.33331 8.14924 1.33331 8.33333V14.3333ZM2.83332 9.33333H3.49998C3.59203 9.33333 3.66665 9.40795 3.66665 9.5V10.1667C3.66665 10.2587 3.59203 10.3333 3.49998 10.3333H2.83332C2.74127 10.3333 2.66665 10.2587 2.66665 10.1667V9.5C2.66665 9.40795 2.74127 9.33333 2.83332 9.33333ZM4.04698 13.3294L2.62187 13.326C2.56665 13.3259 2.52198 13.281 2.52211 13.2258C2.52218 13.1993 2.53271 13.174 2.5514 13.1553L3.92901 11.7777C3.98108 11.7256 4.0655 11.7256 4.11757 11.7777L4.75326 12.4134L6.43904 10.7276C6.49111 10.6755 6.57553 10.6755 6.6276 10.7276C6.6526 10.7526 6.66665 10.7865 6.66665 10.8219V13.2333C6.66665 13.2886 6.62188 13.3333 6.56665 13.3333H4.07474C4.06511 13.3333 4.05579 13.332 4.04698 13.3294Z" fill="white"/>
</svg>
