<?xml version="1.0" standalone="no"?><!DOCTYPE svg PUBLIC "-//W3C//DTD SVG 1.1//EN" "http://www.w3.org/Graphics/SVG/1.1/DTD/svg11.dtd"><svg t="1718950836622" class="icon" viewBox="0 0 1024 1024" version="1.1" xmlns="http://www.w3.org/2000/svg" p-id="14660" xmlns:xlink="http://www.w3.org/1999/xlink" width="200" height="200"><path d="M366.08 301.269333l-215.552 235.178667L354.133333 771.669333a21.333333 21.333333 0 0 1-0.810666 28.8l-27.904 28.842667a21.333333 21.333333 0 0 1-31.36-0.810667L50.944 550.826667a21.333333 21.333333 0 0 1 0.298667-28.458667L306.773333 243.669333a21.333333 21.333333 0 0 1 31.018667-0.426666l27.904 28.8a21.333333 21.333333 0 0 1 0.426667 29.226666z m513.578667 235.178667l-206.08-235.178667a21.333333 21.333333 0 0 1 0.682666-28.928l27.904-28.8a21.333333 21.333333 0 0 1 31.317334 0.682667l245.674666 277.845333a21.333333 21.333333 0 0 1-0.298666 28.544l-255.402667 278.613334a21.333333 21.333333 0 0 1-31.061333 0.426666l-27.904-28.757333a21.333333 21.333333 0 0 1-0.384-29.269333l215.594666-235.178667z m-324.864-474.88l42.410666 4.906667a21.333333 21.333333 0 0 1 18.730667 23.637333L514.133333 965.12a21.333333 21.333333 0 0 1-23.637333 18.730667l-42.368-4.949334a21.333333 21.333333 0 0 1-18.773333-23.637333L531.2 80.213333a21.333333 21.333333 0 0 1 23.68-18.730666z" p-id="14661" fill="#FF8800"></path></svg>