<svg width="27" height="20" viewBox="0 0 27 20" fill="none" xmlns="http://www.w3.org/2000/svg">
<path fill-rule="evenodd" clip-rule="evenodd" d="M23.6667 3.33329H3.66667V16.6666H23.6667V3.33329ZM3.66667 1.66663C2.74619 1.66663 2 2.41282 2 3.33329V16.6666C2 17.5871 2.74619 18.3333 3.66667 18.3333H23.6667C24.5871 18.3333 25.3333 17.5871 25.3333 16.6666V3.33329C25.3333 2.41282 24.5871 1.66663 23.6667 1.66663H3.66667Z" fill="#646A73"/>
<path fill-rule="evenodd" clip-rule="evenodd" d="M16.2196 6.91331H18.2767L19.4 9.89549L20.4758 6.91331L22.5375 6.83044L19.4 14.8138L17.3565 14.8966L18.437 12.3756L16.2196 6.91331Z" fill="#646A73"/>
<path fill-rule="evenodd" clip-rule="evenodd" d="M13.1034 7.06327C13.1302 7.04839 13.1574 7.03404 13.1848 7.02023C13.5166 6.84295 13.8759 6.77344 14.2468 6.77344C14.9611 6.77344 15.5729 6.97047 15.9992 7.43635C16.419 7.89521 16.5934 8.54454 16.5934 9.3101V12.9168H14.7001V9.4001C14.7001 9.01738 14.6103 8.80651 14.5052 8.69229C14.4059 8.58445 14.2319 8.49677 13.9067 8.49677C13.7078 8.49677 13.5468 8.55932 13.4114 8.69473C13.2534 8.85274 13.1382 9.08146 13.1034 9.41091V12.9168H11.2101V6.91344H13.1034V7.06327Z" fill="#646A73"/>
<path fill-rule="evenodd" clip-rule="evenodd" d="M9.01665 12.6833V12.9168H10.83V9.2001C10.83 8.50266 10.6523 7.90623 10.247 7.47482L10.2458 7.47354C9.77726 6.97898 9.08554 6.77344 8.26332 6.77344C7.58671 6.77344 6.97894 6.88784 6.50606 7.18452C5.95355 7.51308 5.61381 8.04132 5.48446 8.69979L5.39493 9.15558L6.60828 9.25958C6.45695 9.32645 6.3157 9.40545 6.18578 9.49774C5.6067 9.89006 5.31665 10.4724 5.31665 11.1801C5.31665 11.727 5.52656 12.1949 5.95194 12.5464C6.34831 12.8992 6.87585 13.0568 7.48332 13.0568C7.99851 13.0568 8.45994 12.9557 8.86073 12.7671L8.86966 12.7628C8.91982 12.7377 8.96882 12.7112 9.01665 12.6833ZM7.33362 9.04021C7.60234 8.98907 7.88998 8.96154 8.19236 8.95358L8.93243 8.93444C8.90662 8.77431 8.84911 8.68249 8.7882 8.62627C8.69958 8.54447 8.527 8.46677 8.19332 8.46677C7.90772 8.46677 7.72064 8.51963 7.60769 8.58739L7.60328 8.59004C7.46993 8.66783 7.38847 8.77506 7.35134 8.95452L7.33362 9.04021ZM8.93782 10.5386L8.28478 10.5566L8.28191 10.5567C7.83203 10.566 7.5658 10.6502 7.4222 10.7499C7.3054 10.831 7.23998 10.9409 7.23998 11.1401C7.23998 11.2037 7.25413 11.2438 7.32642 11.2991L7.3313 11.3029L7.33606 11.3067C7.40443 11.3623 7.52395 11.4134 7.72332 11.4134C8.07815 11.4134 8.36218 11.3062 8.60462 11.1017C8.80129 10.9357 8.90794 10.7499 8.93782 10.5386Z" fill="#646A73"/>
</svg>
