<svg width="32" height="32" viewBox="0 0 32 32" fill="none" xmlns="http://www.w3.org/2000/svg">
<path d="M5.3335 3.33333C5.3335 2.59695 5.93045 2 6.66683 2H19.8146C19.9934 2 20.1647 2.07183 20.29 2.19934L26.4756 8.49255C26.5982 8.61722 26.6668 8.78505 26.6668 8.95987V28.6667C26.6668 29.403 26.0699 30 25.3335 30H6.66683C5.93045 30 5.3335 29.403 5.3335 28.6667V3.33333Z" fill="#3370FF"/>
<path d="M20 2.02637C20.1089 2.05793 20.2089 2.11704 20.2899 2.19936L26.4755 8.49256C26.5261 8.54408 26.5675 8.60297 26.5987 8.66668H21.5135C20.6776 8.66668 20 7.98906 20 7.15317V2.02637Z" fill="#2B5FD9"/>
<path d="M10.7636 13.5757H20.8727C20.9932 13.5757 21.0909 13.6734 21.0909 13.7939V14.8121C21.0909 14.9326 20.9932 15.0303 20.8727 15.0303H10.7636C10.6431 15.0303 10.5454 14.9326 10.5454 14.8121V13.7939C10.5454 13.6734 10.6431 13.5757 10.7636 13.5757ZM10.7636 17.9394H20.8727C20.9932 17.9394 21.0909 18.0371 21.0909 18.1576V19.1757C21.0909 19.2962 20.9932 19.3939 20.8727 19.3939H10.7636C10.6431 19.3939 10.5454 19.2962 10.5454 19.1757V18.1576C10.5454 18.0371 10.6431 17.9394 10.7636 17.9394ZM10.7636 22.303H16.1454C16.2659 22.303 16.3636 22.4007 16.3636 22.5212V23.5394C16.3636 23.6599 16.2659 23.7576 16.1454 23.7576H10.7636C10.6431 23.7576 10.5454 23.6599 10.5454 23.5394V22.5212C10.5454 22.4007 10.6431 22.303 10.7636 22.303Z" fill="white"/>
</svg>
