<svg width="20" height="20" viewBox="0 0 20 20" fill="none" xmlns="http://www.w3.org/2000/svg">
<path fill-rule="evenodd" clip-rule="evenodd" d="M16.6667 3.33329H3.33335V16.6666H16.6667V3.33329ZM3.33335 1.66663C2.41288 1.66663 1.66669 2.41282 1.66669 3.33329V16.6666C1.66669 17.5871 2.41288 18.3333 3.33335 18.3333H16.6667C17.5872 18.3333 18.3334 17.5871 18.3334 16.6666V3.33329C18.3334 2.41282 17.5872 1.66663 16.6667 1.66663H3.33335Z" fill="#646A73"/>
<path fill-rule="evenodd" clip-rule="evenodd" d="M13.33 5.83667H15.2233V13.95H13.33V5.83667Z" fill="#646A73"/>
<path fill-rule="evenodd" clip-rule="evenodd" d="M10.83 5.83667H12.7233V13.95H10.83V5.83667Z" fill="#646A73"/>
<path fill-rule="evenodd" clip-rule="evenodd" d="M8.51665 13.7165V13.95H10.33V10.2333C10.33 9.53587 10.1523 8.93943 9.747 8.50803L9.7458 8.50675C9.27726 8.01218 8.58554 7.80664 7.76332 7.80664C7.08671 7.80664 6.47894 7.92104 6.00606 8.21772C5.45355 8.54628 5.11381 9.07452 4.98446 9.733L4.89493 10.1888L6.10828 10.2928C5.95695 10.3597 5.8157 10.4386 5.68578 10.5309C5.1067 10.9233 4.81665 11.5057 4.81665 12.2133C4.81665 12.7602 5.02656 13.2281 5.45194 13.5796C5.84831 13.9324 6.37585 14.09 6.98332 14.09C7.49851 14.09 7.95994 13.9889 8.36073 13.8003L8.36966 13.796C8.41982 13.7709 8.46882 13.7444 8.51665 13.7165ZM6.83361 10.0734C7.10234 10.0223 7.38998 9.99474 7.69236 9.98678L8.43243 9.96764C8.40662 9.80751 8.3491 9.71569 8.2882 9.65948C8.19958 9.57767 8.027 9.49997 7.69332 9.49997C7.40772 9.49997 7.22064 9.55283 7.10769 9.6206L7.10328 9.62324C6.96993 9.70103 6.88847 9.80826 6.85134 9.98773L6.83361 10.0734ZM8.43782 11.5718L7.78478 11.5898L7.78191 11.5899C7.33203 11.5992 7.0658 11.6834 6.9222 11.7831C6.8054 11.8642 6.73998 11.9741 6.73998 12.1733C6.73998 12.2369 6.75413 12.277 6.82642 12.3323L6.8313 12.3361L6.83606 12.3399C6.90443 12.3955 7.02395 12.4466 7.22332 12.4466C7.57815 12.4466 7.86218 12.3394 8.10462 12.1349C8.30129 11.9689 8.40794 11.7831 8.43782 11.5718Z" fill="#646A73"/>
</svg>
