<svg width="89" height="22" viewBox="0 0 89 22" fill="none" xmlns="http://www.w3.org/2000/svg">
<g clip-path="url(#clip0_11132_142017)">
<path d="M9.58875 8.33325H11.1126V14.0475H9.58875V8.33325Z" fill="#3370FF"/>
<path d="M36.8547 8.33325H38.3785V14.0475H36.8547V8.33325Z" fill="#3370FF"/>
<path d="M59.5767 8.33325H61.1005V14.0475H59.5767V8.33325Z" fill="#3370FF"/>
<path d="M86.843 8.33325H88.3668V14.0475H86.843V8.33325Z" fill="#3370FF"/>
<path d="M41.399 6.80957H42.9229V14.8096H41.399V6.80957Z" fill="#3370FF"/>
<path d="M55.0322 6.04736H56.556V15.5712H55.0322V6.04736Z" fill="#3370FF"/>
<path d="M45.9435 8.71411H47.4673V13.2855H45.9435V8.71411Z" fill="#3370FF"/>
<path d="M50.4879 7.95239H52.0117V14.4286H50.4879V7.95239Z" fill="#3370FF"/>
<path d="M5.04443 6.04736H6.56824V15.5712H5.04443V6.04736Z" fill="#3370FF"/>
<path d="M0.5 8.71411H2.02381V13.2855H0.5V8.71411Z" fill="#3370FF"/>
<path d="M14.1332 6.80957H15.657V15.1905H14.1332V6.80957Z" fill="#3370FF"/>
<path d="M32.3103 6.80957H33.8341V15.1905H32.3103V6.80957Z" fill="#3370FF"/>
<path d="M64.1211 6.80957H65.6449V15.5715H64.1211V6.80957Z" fill="#3370FF"/>
<path d="M82.2986 6.80957H83.8224V15.1905H82.2986V6.80957Z" fill="#3370FF"/>
<path d="M18.6776 6.04736H20.2014V15.9521H18.6776V6.04736Z" fill="#3370FF"/>
<path d="M27.7664 5.6665H29.2902V16.7141H27.7664V5.6665Z" fill="#3370FF"/>
<path d="M68.6654 5.28564H70.1892V16.7142H68.6654V5.28564Z" fill="#3370FF"/>
<path d="M77.7543 5.28564H79.2781V16.7142H77.7543V5.28564Z" fill="#3370FF"/>
<path d="M23.2219 2.6189H24.7457V19.3808H23.2219V2.6189Z" fill="#3370FF"/>
<path d="M73.2098 3.3811H74.7336V18.6192H73.2098V3.3811Z" fill="#3370FF"/>
</g>
<defs>
<clipPath id="clip0_11132_142017">
<rect width="88" height="22" fill="white" transform="translate(0.5)"/>
</clipPath>
</defs>
</svg>
