<svg width="24" height="24" viewBox="0 0 24 24" fill="none" xmlns="http://www.w3.org/2000/svg">
<path fill-rule="evenodd" clip-rule="evenodd" d="M4 2.5C4 1.94772 4.44772 1.5 5 1.5H14.7929C14.9255 1.5 15.0527 1.55268 15.1464 1.64645L19.8536 6.35355C19.9473 6.44732 20 6.5745 20 6.70711V21.5C20 22.0523 19.5523 22.5 19 22.5H5C4.44772 22.5 4 22.0523 4 21.5V2.5Z" fill="#34C724"/>
<path d="M9.27052 14.1558H10.1825C10.1545 13.9078 10.0865 13.6878 9.97852 13.4958C9.87052 13.3038 9.73252 13.1438 9.56452 13.0158C9.40052 12.8838 9.21252 12.7838 9.00052 12.7158C8.79252 12.6478 8.57052 12.6138 8.33452 12.6138C8.00652 12.6138 7.71052 12.6718 7.44652 12.7878C7.18652 12.9038 6.96652 13.0638 6.78652 13.2678C6.60652 13.4718 6.46852 13.7118 6.37252 13.9878C6.27652 14.2598 6.22852 14.5558 6.22852 14.8758C6.22852 15.1878 6.27652 15.4798 6.37252 15.7518C6.46852 16.0198 6.60652 16.2538 6.78652 16.4538C6.96652 16.6538 7.18652 16.8118 7.44652 16.9278C7.71052 17.0398 8.00652 17.0958 8.33452 17.0958C8.59852 17.0958 8.84052 17.0558 9.06052 16.9758C9.28052 16.8958 9.47252 16.7798 9.63652 16.6278C9.80052 16.4758 9.93252 16.2918 10.0325 16.0758C10.1325 15.8598 10.1945 15.6178 10.2185 15.3498H9.30652C9.27052 15.6378 9.17052 15.8698 9.00652 16.0458C8.84652 16.2218 8.62252 16.3098 8.33452 16.3098C8.12252 16.3098 7.94252 16.2698 7.79452 16.1898C7.64652 16.1058 7.52652 15.9958 7.43452 15.8598C7.34252 15.7238 7.27452 15.5718 7.23052 15.4038C7.19052 15.2318 7.17052 15.0558 7.17052 14.8758C7.17052 14.6878 7.19052 14.5058 7.23052 14.3298C7.27452 14.1538 7.34252 13.9978 7.43452 13.8618C7.52652 13.7218 7.64652 13.6118 7.79452 13.5318C7.94252 13.4478 8.12252 13.4058 8.33452 13.4058C8.45052 13.4058 8.56052 13.4258 8.66452 13.4658C8.77252 13.5018 8.86852 13.5538 8.95252 13.6218C9.03652 13.6898 9.10652 13.7698 9.16252 13.8618C9.21852 13.9498 9.25452 14.0478 9.27052 14.1558Z" fill="white"/>
<path d="M11.5038 15.5778H10.5918C10.5878 15.8418 10.6358 16.0698 10.7358 16.2618C10.8358 16.4538 10.9698 16.6118 11.1378 16.7358C11.3098 16.8598 11.5058 16.9498 11.7258 17.0058C11.9498 17.0658 12.1798 17.0958 12.4158 17.0958C12.7078 17.0958 12.9638 17.0618 13.1838 16.9938C13.4078 16.9258 13.5938 16.8318 13.7418 16.7118C13.8938 16.5878 14.0078 16.4418 14.0838 16.2738C14.1598 16.1058 14.1978 15.9238 14.1978 15.7278C14.1978 15.4878 14.1458 15.2918 14.0418 15.1398C13.9418 14.9838 13.8218 14.8598 13.6818 14.7678C13.5418 14.6758 13.3998 14.6098 13.2558 14.5698C13.1158 14.5258 13.0058 14.4958 12.9258 14.4798C12.6578 14.4118 12.4398 14.3558 12.2718 14.3118C12.1078 14.2678 11.9778 14.2238 11.8818 14.1798C11.7898 14.1358 11.7278 14.0878 11.6958 14.0358C11.6638 13.9838 11.6478 13.9158 11.6478 13.8318C11.6478 13.7398 11.6678 13.6638 11.7078 13.6038C11.7478 13.5438 11.7978 13.4938 11.8578 13.4538C11.9218 13.4138 11.9918 13.3858 12.0678 13.3698C12.1438 13.3538 12.2198 13.3458 12.2958 13.3458C12.4118 13.3458 12.5178 13.3558 12.6138 13.3758C12.7138 13.3958 12.8018 13.4298 12.8778 13.4778C12.9538 13.5258 13.0138 13.5918 13.0578 13.6758C13.1058 13.7598 13.1338 13.8658 13.1418 13.9938H14.0538C14.0538 13.7458 14.0058 13.5358 13.9098 13.3638C13.8178 13.1878 13.6918 13.0438 13.5318 12.9318C13.3718 12.8198 13.1878 12.7398 12.9798 12.6918C12.7758 12.6398 12.5618 12.6138 12.3378 12.6138C12.1458 12.6138 11.9538 12.6398 11.7618 12.6918C11.5698 12.7438 11.3978 12.8238 11.2458 12.9318C11.0938 13.0398 10.9698 13.1758 10.8738 13.3398C10.7818 13.4998 10.7358 13.6898 10.7358 13.9098C10.7358 14.1058 10.7718 14.2738 10.8438 14.4138C10.9198 14.5498 11.0178 14.6638 11.1378 14.7558C11.2578 14.8478 11.3938 14.9238 11.5458 14.9838C11.6978 15.0398 11.8538 15.0878 12.0138 15.1278C12.1698 15.1718 12.3238 15.2118 12.4758 15.2478C12.6278 15.2838 12.7638 15.3258 12.8838 15.3738C13.0038 15.4218 13.0998 15.4818 13.1718 15.5538C13.2478 15.6258 13.2858 15.7198 13.2858 15.8358C13.2858 15.9438 13.2578 16.0338 13.2018 16.1058C13.1458 16.1738 13.0758 16.2278 12.9918 16.2678C12.9078 16.3078 12.8178 16.3358 12.7218 16.3518C12.6258 16.3638 12.5358 16.3698 12.4518 16.3698C12.3278 16.3698 12.2078 16.3558 12.0918 16.3278C11.9758 16.2958 11.8738 16.2498 11.7858 16.1898C11.7018 16.1258 11.6338 16.0438 11.5818 15.9438C11.5298 15.8438 11.5038 15.7218 11.5038 15.5778Z" fill="white"/>
<path d="M16.7503 16.9998L18.1723 12.7158H17.2003L16.2343 15.7278H16.2223L15.2683 12.7158H14.3023L15.6883 16.9998H16.7503Z" fill="white"/>
<path d="M15 1.54492C15.054 1.56949 15.1037 1.6037 15.1464 1.64646L19.8536 6.35357C19.8963 6.39632 19.9305 6.44602 19.9551 6.50001H16C15.4477 6.50001 15 6.0523 15 5.50001V1.54492Z" fill="#2CA91F"/>
</svg>
