<svg width="24" height="24" viewBox="0 0 24 24" fill="none" xmlns="http://www.w3.org/2000/svg">
<path fill-rule="evenodd" clip-rule="evenodd" d="M4.00024 2.5C4.00024 1.94772 4.44796 1.5 5.00024 1.5H14.7931C14.9257 1.5 15.0529 1.55268 15.1467 1.64645L19.8538 6.35355C19.9476 6.44732 20.0002 6.5745 20.0002 6.70711V21.5C20.0002 22.0523 19.5525 22.5 19.0002 22.5H5.00024C4.44796 22.5 4.00024 22.0523 4.00024 21.5V2.5Z" fill="#D136D1"/>
<path fill-rule="evenodd" clip-rule="evenodd" d="M4.00024 2.5C4.00024 1.94772 4.44796 1.5 5.00024 1.5H14.7931C14.9257 1.5 15.0529 1.55268 15.1467 1.64645L19.8538 6.35355C19.9476 6.44732 20.0002 6.5745 20.0002 6.70711V21.5C20.0002 22.0523 19.5525 22.5 19.0002 22.5H5.00024C4.44796 22.5 4.00024 22.0523 4.00024 21.5V2.5Z" fill="#3370FF"/>
<path d="M10.2966 11.4764L7.76958 14.1363L10.2966 16.7961C10.3873 16.8916 10.3857 17.0447 10.293 17.1381L10.292 17.1391L9.95252 17.4774C9.8597 17.5698 9.7118 17.5677 9.62149 17.4727L6.61239 14.3054C6.52308 14.2114 6.52308 14.0611 6.61239 13.9671L9.62149 10.7999C9.7118 10.7048 9.8597 10.7027 9.95252 10.7952L10.292 11.1335C10.3852 11.2263 10.3877 11.3794 10.2976 11.4754L10.2966 11.4764ZM16.3178 14.1363L13.9712 11.4764C13.887 11.381 13.8885 11.2278 13.9746 11.1344L13.9755 11.1335L14.2908 10.7952C14.3769 10.7027 14.5143 10.7048 14.5981 10.7999L17.3923 13.9671C17.4752 14.0611 17.4752 14.2114 17.3923 14.3054L14.5981 17.4727C14.5143 17.5677 14.3769 17.5698 14.2908 17.4774L13.9755 17.1391C13.8889 17.0462 13.8866 16.8931 13.9704 16.7971L13.9712 16.7961L16.3178 14.1363ZM12.6285 9.09234L13.1203 9.14509C13.2546 9.15949 13.3509 9.27213 13.3353 9.39669L12.1614 18.7083C12.1457 18.8327 12.0244 18.9219 11.8902 18.9075L11.3984 18.8547C11.2642 18.8403 11.1679 18.7277 11.1834 18.6031L12.3574 9.2915C12.373 9.16708 12.4944 9.07796 12.6285 9.09234Z" fill="white"/>
<path d="M15 1.54492C15.054 1.56949 15.1037 1.6037 15.1464 1.64646L19.8536 6.35357C19.8963 6.39632 19.9305 6.44602 19.9551 6.50001H16C15.4477 6.50001 15 6.0523 15 5.50001V1.54492Z" fill="#2B5FD9"/>
</svg>
