<svg width="32" height="32" viewBox="0 0 32 32" fill="none" xmlns="http://www.w3.org/2000/svg">
<path fill-rule="evenodd" clip-rule="evenodd" d="M5.3335 3.33333C5.3335 2.59695 5.93045 2 6.66683 2H19.724C19.9008 2 20.0704 2.07024 20.1954 2.19526L26.4716 8.47141C26.5966 8.59643 26.6668 8.766 26.6668 8.94281V28.6667C26.6668 29.403 26.0699 30 25.3335 30H6.66683C5.93045 30 5.3335 29.403 5.3335 28.6667V3.33333Z" fill="#3370FF"/>
<path d="M20 2.05994C20.072 2.0927 20.1383 2.13831 20.1953 2.19532L26.4714 8.47146C26.5284 8.52847 26.574 8.59473 26.6068 8.66672H21.3333C20.597 8.66672 20 8.06977 20 7.33339V2.05994Z" fill="#2B5FD9"/>
<path d="M19.976 12.8794C20.254 12.9447 20.4595 13.1796 20.4872 13.4638L20.6106 14.7297C20.6546 15.1805 20.2459 15.5429 19.8037 15.4455L16.7344 14.7691C16.5577 14.7302 16.3944 14.8747 16.4116 15.0548L17.1297 22.5884C17.1297 22.7046 17.1151 22.7812 17.0891 22.8249C17.0254 24.3752 15.7484 25.6124 14.1825 25.6124C12.5759 25.6124 11.2734 24.31 11.2734 22.7033C11.2734 21.0967 12.5759 19.7942 14.1825 19.7942C14.8467 19.7942 15.4589 20.0168 15.9485 20.3914L15.274 12.6749C15.2345 12.2228 15.6485 11.8642 16.0904 11.9678L19.976 12.8794Z" fill="white"/>
</svg>
