<svg width="20" height="20" viewBox="0 0 20 20" fill="none" xmlns="http://www.w3.org/2000/svg">
<path d="M4.05704 15.3334H2.00004C1.82323 15.3334 1.65366 15.2632 1.52864 15.1382C1.40361 15.0131 1.33337 14.8436 1.33337 14.6667V1.33341C1.33337 1.1566 1.40361 0.987035 1.52864 0.862011C1.65366 0.736987 1.82323 0.666748 2.00004 0.666748H12.6667C12.8435 0.666748 13.0131 0.736987 13.1381 0.862011C13.2631 0.987035 13.3334 1.1566 13.3334 1.33341V6.05641C13.3334 6.23316 13.2633 6.4027 13.1384 6.52775L4.52871 15.1381C4.46678 15.2 4.39324 15.2492 4.31231 15.2827C4.23138 15.3162 4.14464 15.3334 4.05704 15.3334ZM4.431 7.90245C4.49352 7.96496 4.5783 8.00008 4.66671 8.00008H8.00004C8.08844 8.00008 8.17323 7.96496 8.23574 7.90245C8.29825 7.83994 8.33337 7.75515 8.33337 7.66675V7.00008C8.33337 6.91167 8.29825 6.82689 8.23574 6.76438C8.17323 6.70187 8.08844 6.66675 8.00004 6.66675H4.66671C4.5783 6.66675 4.49352 6.70187 4.431 6.76438C4.36849 6.82689 4.33337 6.91167 4.33337 7.00008V7.66675C4.33337 7.75515 4.36849 7.83994 4.431 7.90245ZM4.431 4.56912C4.49352 4.63163 4.5783 4.66675 4.66671 4.66675H10.3334C10.3771 4.66675 10.4205 4.65813 10.4609 4.64138C10.5014 4.62462 10.5381 4.60007 10.5691 4.56912C10.6 4.53816 10.6246 4.50142 10.6413 4.46098C10.6581 4.42053 10.6667 4.37719 10.6667 4.33341V3.66675C10.6667 3.62297 10.6581 3.57963 10.6413 3.53919C10.6246 3.49874 10.6 3.462 10.5691 3.43105C10.5381 3.40009 10.5014 3.37554 10.4609 3.35879C10.4205 3.34204 10.3771 3.33341 10.3334 3.33341H4.66671C4.5783 3.33341 4.49352 3.36853 4.431 3.43105C4.36849 3.49356 4.33337 3.57834 4.33337 3.66675V4.33341C4.33337 4.42182 4.36849 4.5066 4.431 4.56912Z" fill="white"/>
<g opacity="0.5">
<path d="M13.565 11.518L11.6847 9.6381L7.55305 13.7961L7.33337 15.5777C7.33337 15.6661 7.36849 15.7509 7.431 15.8134C7.49352 15.8759 7.5783 15.911 7.66671 15.911L9.45064 15.627L13.565 11.518Z" fill="white"/>
<path d="M14.0486 8.20917C13.7886 7.94884 13.387 7.92884 13.151 8.16417L12.1543 9.16417L14.0369 11.0468L15.0346 10.0508L15.0662 10.0168C15.2689 9.7781 15.2396 9.4001 14.9912 9.15144L14.0486 8.20917Z" fill="white"/>
</g>
</svg>
