<svg width="22" height="22" viewBox="0 0 22 22" fill="none" xmlns="http://www.w3.org/2000/svg">
    <path
        d="M5.66676 5.22216C5.66676 4.24034 4.87081 3.44438 3.88898 3.44438C2.90714 3.44438 2.11121 4.24034 2.11121 5.22216C2.11121 6.20398 2.90714 6.99994 3.88898 6.99994C4.87081 6.99994 5.66676 6.20398 5.66676 5.22216Z"
        fill="white" />
    <path
        d="M5.66676 16.7777C5.66676 15.7959 4.87081 14.9999 3.88898 14.9999C2.90714 14.9999 2.11121 15.7959 2.11121 16.7777C2.11121 17.7595 2.90714 18.5555 3.88898 18.5555C4.87081 18.5555 5.66676 17.7595 5.66676 16.7777Z"
        fill="white" />
    <path
        d="M20.7778 10.9999C20.7778 9.52716 19.5839 8.33323 18.1111 8.33323C16.6384 8.33323 15.4445 9.52716 15.4445 10.9999C15.4445 12.4726 16.6384 13.6666 18.1111 13.6666C19.5839 13.6666 20.7778 12.4726 20.7778 10.9999Z"
        fill="white" />
    <path
        d="M6.55562 4.77767C6.55562 3.30494 5.36169 2.111 3.88896 2.111C2.41622 2.111 1.22229 3.30494 1.22229 4.77767C1.22229 6.2504 2.41622 7.44434 3.88896 7.44434C5.36169 7.44434 6.55562 6.2504 6.55562 4.77767Z"
        fill="white" />
    <path
        d="M6.55562 17.2221C6.55562 15.7494 5.36169 14.5555 3.88896 14.5555C2.41622 14.5555 1.22229 15.7494 1.22229 17.2221C1.22229 18.6949 2.41622 19.8888 3.88896 19.8888C5.36169 19.8888 6.55562 18.6949 6.55562 17.2221Z"
        fill="white" />
    <path fill-rule="evenodd" clip-rule="evenodd"
        d="M4.77783 16.7777C4.77783 16.2868 5.1758 15.8888 5.66672 15.8888H7.00005C7.47797 15.8888 7.9427 15.6735 8.466 15.2097C9.00158 14.735 9.50472 14.0859 10.0733 13.3468C10.0826 13.3347 10.0919 13.3226 10.1012 13.3105C10.6367 12.6143 11.2356 11.8357 11.9104 11.2375C12.0023 11.156 12.0971 11.0765 12.195 10.9999C12.0971 10.9232 12.0023 10.8438 11.9104 10.7623C11.2356 10.1641 10.6367 9.38547 10.1012 8.68927L10.0733 8.65297C9.50472 7.91385 9.00158 7.26481 8.466 6.7901C7.9427 6.32626 7.47797 6.11101 7.00005 6.11101H5.66672C5.1758 6.11101 4.77783 5.71304 4.77783 5.22212C4.77783 4.7312 5.1758 4.33323 5.66672 4.33323H7.00005C8.07769 4.33323 8.94629 4.8402 9.64522 5.4597C10.3201 6.0579 10.919 6.83655 11.4545 7.53275L11.4824 7.56904C12.0509 8.30817 12.5541 8.95721 13.0897 9.43192C13.613 9.89576 14.0777 10.111 14.5556 10.111H16.3334C16.8243 10.111 17.2223 10.509 17.2223 10.9999C17.2223 11.4908 16.8243 11.8888 16.3334 11.8888H14.5556C14.0777 11.8888 13.613 12.104 13.0897 12.5679C12.5541 13.0426 12.0509 13.6916 11.4824 14.4308L11.4545 14.467C10.919 15.1632 10.3201 15.9419 9.64522 16.5401C8.94629 17.1596 8.07769 17.6666 7.00005 17.6666H5.66672C5.1758 17.6666 4.77783 17.2686 4.77783 16.7777Z"
        fill="white" />
</svg>
    