<svg width="16" height="16" viewBox="0 0 16 16" fill="none" xmlns="http://www.w3.org/2000/svg">
<path d="M8.185 14.7097C8.41034 15.273 9.21034 15.2667 9.42667 14.6997L10.8753 10.9044L14.701 9.42671C15.266 9.20838 15.2707 8.41072 14.7083 8.18572L5.28034 4.41438C4.736 4.19672 4.196 4.73705 4.41367 5.28105L8.185 14.7097Z" fill="white"/>
<path opacity="0.5" d="M8.33167 4.559C8.275 2.58367 6.65567 1 4.66667 1C2.64167 1 1 2.64167 1 4.66667C1 6.65467 2.58167 8.273 4.55567 8.33167L3.98233 6.898C3.59753 6.77974 3.24987 6.56394 2.97314 6.27157C2.69642 5.9792 2.50004 5.6202 2.4031 5.22948C2.30617 4.83876 2.31196 4.42961 2.41993 4.0418C2.52791 3.65398 2.73438 3.3007 3.01928 3.01629C3.30418 2.73187 3.65781 2.52601 4.04581 2.4187C4.43381 2.3114 4.84298 2.3063 5.23353 2.40391C5.62408 2.50152 5.98274 2.69851 6.27463 2.97574C6.56653 3.25296 6.78174 3.60099 6.89933 3.986L8.33167 4.559Z" fill="white"/>
</svg>
