<svg xmlns="http://www.w3.org/2000/svg" width="24" height="24" viewBox="0 0 24 24" fill="none">
<g clip-path="url(#clip0_6564_362280)">
<path d="M0 4C0 1.79086 1.95367 0 4.36364 0H19.6364C22.0463 0 24 1.79086 24 4V20C24 22.2091 22.0463 24 19.6364 24H4.36364C1.95367 24 0 22.2091 0 20V4Z" fill="none"/>
<path d="M8.00004 7.66667C8.00004 6.9303 7.40307 6.33333 6.66671 6.33333C5.93033 6.33333 5.33337 6.9303 5.33337 7.66667C5.33337 8.40303 5.93033 9 6.66671 9C7.40307 9 8.00004 8.40303 8.00004 7.66667Z" fill="white"/>
<path d="M8.00004 16.3333C8.00004 15.5969 7.40307 15 6.66671 15C5.93033 15 5.33337 15.5969 5.33337 16.3333C5.33337 17.0697 5.93033 17.6666 6.66671 17.6666C7.40307 17.6666 8.00004 17.0697 8.00004 16.3333Z" fill="white"/>
<path d="M19.3334 12C19.3334 10.8955 18.4379 10 17.3334 10C16.2288 10 15.3334 10.8955 15.3334 12C15.3334 13.1046 16.2288 14 17.3334 14C18.4379 14 19.3334 13.1046 19.3334 12Z" fill="white"/>
<path d="M8.66663 7.33337C8.66663 6.22882 7.77118 5.33337 6.66663 5.33337C5.56208 5.33337 4.66663 6.22882 4.66663 7.33337C4.66663 8.43792 5.56208 9.33337 6.66663 9.33337C7.77118 9.33337 8.66663 8.43792 8.66663 7.33337Z" fill="white"/>
<path d="M8.66663 16.6666C8.66663 15.5621 7.77118 14.6666 6.66663 14.6666C5.56208 14.6666 4.66663 15.5621 4.66663 16.6666C4.66663 17.7712 5.56208 18.6666 6.66663 18.6666C7.77118 18.6666 8.66663 17.7712 8.66663 16.6666Z" fill="white"/>
<path fill-rule="evenodd" clip-rule="evenodd" d="M7.33337 16.3333C7.33337 15.9651 7.63185 15.6667 8.00004 15.6667H9.00004C9.35848 15.6667 9.70703 15.5052 10.0995 15.1574C10.5012 14.8013 10.8785 14.3145 11.305 13.7602C11.3119 13.7511 11.3189 13.7421 11.3259 13.733C11.7275 13.2108 12.1767 12.6268 12.6828 12.1782C12.7517 12.1171 12.8229 12.0575 12.8962 12C12.8229 11.9425 12.7517 11.8829 12.6828 11.8218C12.1767 11.3732 11.7275 10.7892 11.3259 10.267L11.305 10.2398C10.8785 9.68546 10.5012 9.19868 10.0995 8.84265C9.70703 8.49477 9.35848 8.33333 9.00004 8.33333H8.00004C7.63185 8.33333 7.33337 8.03486 7.33337 7.66667C7.33337 7.29848 7.63185 7 8.00004 7H9.00004C9.80827 7 10.4597 7.38023 10.9839 7.84485C11.4901 8.2935 11.9392 8.87749 12.3409 9.39964L12.3618 9.42686C12.7882 9.9812 13.1656 10.468 13.5672 10.824C13.9597 11.1719 14.3083 11.3333 14.6667 11.3333H16C16.3682 11.3333 16.6667 11.6318 16.6667 12C16.6667 12.3682 16.3682 12.6667 16 12.6667H14.6667C14.3083 12.6667 13.9597 12.8281 13.5672 13.176C13.1656 13.532 12.7882 14.0188 12.3618 14.5731L12.3409 14.6004C11.9392 15.1225 11.4901 15.7065 10.9839 16.1551C10.4597 16.6198 9.80827 17 9.00004 17H8.00004C7.63185 17 7.33337 16.7015 7.33337 16.3333Z" fill="white"/>
</g>
<defs>
<clipPath id="clip0_6564_362280">
<rect width="24" height="24" fill="white"/>
</clipPath>
</defs>
</svg>