<svg width="32" height="32" viewBox="0 0 32 32" fill="none" xmlns="http://www.w3.org/2000/svg">
<path fill-rule="evenodd" clip-rule="evenodd" d="M5.3335 3.33333C5.3335 2.59695 5.93045 2 6.66683 2H19.724C19.9008 2 20.0704 2.07024 20.1954 2.19526L26.4716 8.47141C26.5966 8.59643 26.6668 8.766 26.6668 8.94281V28.6667C26.6668 29.403 26.0699 30 25.3335 30H6.66683C5.93045 30 5.3335 29.403 5.3335 28.6667V3.33333Z" fill="#14C0FF"/>
<path d="M20 2.05988C20.072 2.09264 20.1383 2.13825 20.1953 2.19526L26.4714 8.4714C26.5284 8.52841 26.574 8.59467 26.6068 8.66666H21.3333C20.597 8.66666 20 8.06971 20 7.33333V2.05988Z" fill="#11A3D9"/>
<path d="M11.3335 16C12.4381 16 13.3335 15.1046 13.3335 14C13.3335 12.8954 12.4381 12 11.3335 12C10.2289 12 9.3335 12.8954 9.3335 14C9.3335 15.1046 10.2289 16 11.3335 16Z" fill="white"/>
<path d="M22.2785 14.9317C22.4218 14.7884 22.6668 14.8899 22.6668 15.0925V24.0645C22.6668 24.1901 22.565 24.2919 22.4394 24.2919H13.4674L13.4587 24.2918H9.56142C9.35877 24.2918 9.25728 24.0468 9.40058 23.9035L14.366 18.938C14.4549 18.8492 14.5989 18.8492 14.6877 18.938L16.48 20.7302L22.2785 14.9317Z" fill="white"/>
</svg>
