<svg width="20" height="20" viewBox="0 0 32 32" fill="none" xmlns="http://www.w3.org/2000/svg">
<path d="M0 8C0 3.58172 3.58172 0 8 0H24C28.4183 0 32 3.58172 32 8V24C32 28.4183 28.4183 32 24 32H8C3.58172 32 0 28.4183 0 24V8Z" fill="#14C0FF"/>
<g clip-path="url(#clip0_10330_2180)">
<path d="M9.42854 7.55565C9.22395 7.55565 9.04578 7.69533 8.99695 7.89401L5.63329 21.5792C5.56444 21.8593 5.77647 22.1297 6.06488 22.1297H7.05321C7.25171 22.1297 7.42615 21.9981 7.4806 21.8072L8.5851 17.9355H12.3922L12.9459 19.8045C13.8587 22.4957 16.5467 24.4445 19.7202 24.4445C22.6731 24.4445 25.2056 22.7572 26.2805 20.3549C26.3076 20.2945 26.3393 20.2159 26.371 20.134C26.464 19.8941 26.3246 19.6296 26.0765 19.5612C26.0348 19.5497 25.9968 19.5393 25.966 19.5308C25.6452 19.4424 25.3876 19.3715 25.1933 19.318C24.9711 19.2568 24.7445 19.3785 24.6511 19.5893C23.8511 21.3957 21.9447 22.6668 19.7202 22.6668C17.4671 22.6668 15.5403 21.3628 14.7589 19.5193L14.683 19.3285L11.9227 7.89578C11.8745 7.69624 11.6959 7.55565 11.4906 7.55565H9.42854ZM19.7202 7.11121C17.0201 7.11121 14.8313 9.41058 14.8313 12.247V16.1976C14.8313 19.0341 17.0201 21.3334 19.7202 21.3334C22.4203 21.3334 24.6091 19.0341 24.6091 16.1976V12.247C24.6091 9.41058 22.4203 7.11121 19.7202 7.11121ZM10.4604 9.10632L12.0355 16.0903H8.88529L10.4604 9.10632Z" fill="white"/>
</g>
<defs>
<clipPath id="clip0_10330_2180">
<rect width="21.3333" height="21.3333" fill="white" transform="matrix(-1 0 0 1 26.6667 5.33337)"/>
</clipPath>
</defs>
</svg>
