<svg width="20" height="20" viewBox="0 0 20 20" fill="none" xmlns="http://www.w3.org/2000/svg">
<path d="M0.833374 3.33333C0.833374 2.8731 1.20647 2.5 1.66671 2.5H8.65168C8.96732 2.5 9.25587 2.67834 9.39703 2.96066L10 4.16667H18.3334C18.7936 4.16667 19.1667 4.53976 19.1667 5V16.6667C19.1667 17.1269 18.7936 17.5 18.3334 17.5H1.66671C1.20647 17.5 0.833374 17.1269 0.833374 16.6667V3.33333Z" fill="#FFA53D"/>
<path d="M0.833374 5.00002C0.833374 4.53978 1.20647 4.16669 1.66671 4.16669H18.3334C18.7936 4.16669 19.1667 4.53978 19.1667 5.00002V16.6667C19.1667 17.1269 18.7936 17.5 18.3334 17.5H1.66671C1.20647 17.5 0.833374 17.1269 0.833374 16.6667V5.00002Z" fill="#FFC60A"/>
</svg>
