<svg width="32" height="32" viewBox="0 0 32 32" fill="none" xmlns="http://www.w3.org/2000/svg">
<path d="M26.1563 2.66699L26.3594 2.68262C26.8258 2.75455 27.2257 3.06988 27.3994 3.51953L29.4004 8.7002C30.2431 10.8818 29.5573 13.1583 28.0215 14.5771C28.0235 14.6068 28.0264 14.6369 28.0264 14.667V28C28.0264 28.7364 27.4288 29.333 26.6924 29.333H5.35941C4.62303 29.333 4.0264 28.7364 4.0264 28V14.667C4.0264 14.6372 4.02838 14.6074 4.0303 14.5781C2.49502 13.1601 1.80856 10.8847 2.65042 8.7041L4.65335 3.51953L4.74026 3.33594C4.97526 2.92651 5.41431 2.66712 5.89651 2.66699H26.1563ZM20.3653 14.1885C19.388 15.2979 17.959 15.9999 16.3643 16H15.6846C14.0896 15.9999 12.6589 15.2983 11.6817 14.1885C10.7002 15.2988 9.26596 16 7.67288 16C7.33622 16 7.00883 15.9688 6.69241 15.9111V26.667H25.3594V15.9102C25.0425 15.968 24.7142 16 24.377 16C22.7837 15.9999 21.347 15.2993 20.3653 14.1885Z" fill="#FF8800"/>
</svg>
