<svg width="16" height="16" viewBox="0 0 16 16" fill="none" xmlns="http://www.w3.org/2000/svg">
<path d="M14.2404 11.9757C14.2022 11.8917 14.1406 11.8206 14.0629 11.7709C13.9853 11.7213 13.8949 11.6951 13.8027 11.6957H12.6518V9.16918C12.6518 7.44347 11.069 6.00118 8.96725 5.65376V1.63242C8.96725 1.37615 8.86544 1.13037 8.68423 0.949156C8.50302 0.767942 8.25724 0.666138 8.00096 0.666138C7.74469 0.666138 7.49891 0.767942 7.3177 0.949156C7.13648 1.13037 7.03468 1.37615 7.03468 1.63242V5.65604C4.93411 6.00233 3.34896 7.44576 3.34896 9.17033V11.6945H2.19811C2.07221 11.6959 1.95172 11.746 1.86184 11.8341C1.77197 11.9223 1.71965 12.0418 1.71582 12.1677V12.1837C1.71582 12.2797 1.74782 12.3779 1.80953 12.4614L3.76496 15.1345C3.80786 15.1932 3.86352 15.2413 3.92775 15.2754C3.99197 15.3094 4.06308 15.3284 4.13572 15.3309C4.20836 15.3334 4.28062 15.3195 4.34705 15.29C4.41349 15.2605 4.47237 15.2163 4.51925 15.1608L6.80153 12.4899C6.86177 12.42 6.9005 12.3341 6.91307 12.2427C6.92564 12.1512 6.91151 12.0581 6.87239 11.9745C6.83423 11.8906 6.7726 11.8195 6.69493 11.7698C6.61726 11.7201 6.52688 11.694 6.43468 11.6945H5.28382V9.16918C5.28382 8.3829 6.39925 7.50747 8.00039 7.50747C9.60153 7.50747 10.7192 8.3829 10.7192 9.16918V11.6922H9.56611C9.47671 11.6918 9.38902 11.7166 9.31303 11.7637C9.23705 11.8108 9.17583 11.8783 9.13639 11.9585C9.10152 12.026 9.08349 12.1009 9.08382 12.1768C9.08444 12.2795 9.11721 12.3794 9.17754 12.4625L11.133 15.1368C11.1759 15.1955 11.2315 15.2436 11.2957 15.2777C11.36 15.3117 11.4311 15.3307 11.5037 15.3332C11.5764 15.3357 11.6486 15.3217 11.7151 15.2923C11.7815 15.2628 11.8404 15.2186 11.8872 15.1631L14.1684 12.4888C14.242 12.404 14.2833 12.2959 14.285 12.1837V12.1688C14.2839 12.1015 14.2683 12.0352 14.2392 11.9745L14.2404 11.9757Z" fill="white"/>
</svg>
