<svg width="22" height="22" viewBox="0 0 22 22" fill="none" xmlns="http://www.w3.org/2000/svg">
<path d="M19.1716 0.688342C19.6753 0.532733 20.0458 1.16193 19.6652 1.52691L11.2658 9.58356C10.0058 10.7921 8.32754 11.4668 6.5817 11.4668C4.68044 11.4668 2.8669 10.667 1.58487 9.26303L0.45879 8.02985C0.332247 7.90313 0.241372 7.74527 0.195339 7.5722C0.149305 7.39913 0.149742 7.21698 0.196605 7.04413C0.243468 6.87129 0.335099 6.71386 0.462248 6.58775C0.589398 6.46164 0.747567 6.3713 0.92079 6.32585L19.1716 0.688342Z" fill="#BBBFC4"/>
<path d="M11 15.1851C11 13.2766 11.7377 11.4419 13.0588 10.0646L20.4664 2.34177C20.8268 1.96601 21.4499 2.32266 21.3084 2.82374L16.143 21.1182C16.0971 21.291 16.0064 21.4487 15.8801 21.5754C15.7538 21.7021 15.5964 21.7932 15.4237 21.8397C15.251 21.8862 15.0691 21.8864 14.8964 21.8402C14.7236 21.794 14.566 21.7031 14.4395 21.5767L13.4439 20.6791C11.8881 19.2764 11 17.2799 11 15.1851Z" fill="#BBBFC4"/>
</svg>
