<svg width="16" height="16" viewBox="0 0 16 16" fill="none" xmlns="http://www.w3.org/2000/svg">
<path d="M8.78395 12.7399C8.87529 12.6625 8.93678 12.5557 8.9578 12.4378L10.4173 3.95194C10.4294 3.87835 10.4253 3.803 10.4054 3.73113C10.3855 3.65926 10.3502 3.59258 10.3019 3.53572C10.2536 3.47887 10.1936 3.43318 10.1259 3.40185C10.0582 3.37051 9.98452 3.35427 9.90994 3.35425H8.04041C7.92032 3.35426 7.80413 3.39687 7.7125 3.4745C7.62088 3.55212 7.55976 3.65974 7.54002 3.77819L7.01877 6.78751H4.5168L5.01025 3.95194C5.02234 3.87835 5.01828 3.803 4.99836 3.73113C4.97843 3.65926 4.94311 3.59258 4.89485 3.53572C4.84658 3.47887 4.78653 3.43318 4.71885 3.40185C4.65117 3.37051 4.57748 3.35427 4.5029 3.35425H2.63337C2.51366 3.35562 2.39818 3.39872 2.30683 3.47611C2.21549 3.5535 2.154 3.66033 2.13298 3.77819L0.673494 12.264C0.6614 12.3376 0.665456 12.413 0.685383 12.4849C0.70531 12.5567 0.740631 12.6234 0.788895 12.6803C0.837159 12.7371 0.897213 12.7828 0.964892 12.8141C1.03257 12.8455 1.10626 12.8617 1.18084 12.8617H3.02257C3.14266 12.8617 3.25885 12.8191 3.35048 12.7415C3.4421 12.6639 3.50322 12.5563 3.52296 12.4378L4.07201 9.42848H6.57398L6.08053 12.264C6.06844 12.3376 6.0725 12.413 6.09243 12.4849C6.11235 12.5567 6.14767 12.6234 6.19594 12.6803C6.2442 12.7371 6.30425 12.7828 6.37193 12.8141C6.43961 12.8455 6.5133 12.8617 6.58788 12.8617H8.45741C8.57712 12.8604 8.6926 12.8173 8.78395 12.7399Z" fill="white"/>
<path d="M13.686 12.7378C13.7786 12.6617 13.8418 12.5555 13.8644 12.4378L14.6428 7.9134C14.6603 7.83959 14.6613 7.76282 14.6456 7.68859C14.6299 7.61437 14.598 7.54454 14.5522 7.48409C14.5064 7.42364 14.4477 7.37409 14.3805 7.33897C14.3133 7.30385 14.2391 7.28404 14.1633 7.28096H12.2938C12.1741 7.28233 12.0586 7.32543 11.9672 7.40282C11.8759 7.48021 11.8144 7.58704 11.7934 7.7049L10.9872 12.2571C10.9739 12.3303 10.9769 12.4055 10.996 12.4774C11.015 12.5493 11.0497 12.6161 11.0974 12.6731C11.1451 12.7302 11.2048 12.776 11.2723 12.8074C11.3397 12.8388 11.4132 12.855 11.4876 12.8548H13.3571C13.477 12.8553 13.5934 12.814 13.686 12.7378Z" fill="white"/>
<path opacity="0.5" d="M14.891 5.59802C14.9822 5.52202 15.0443 5.41679 15.0667 5.30021L15.3239 3.93802C15.3383 3.86434 15.3362 3.78837 15.3176 3.71561C15.2991 3.64284 15.2647 3.5751 15.2168 3.51725C15.1689 3.45941 15.1088 3.41291 15.0408 3.38112C14.9728 3.34932 14.8986 3.33301 14.8235 3.33338H12.9609C12.8428 3.33281 12.7282 3.37345 12.6369 3.4483C12.5455 3.52315 12.4832 3.62752 12.4605 3.74343L12.1964 5.11256C12.1833 5.18609 12.1863 5.2616 12.2054 5.33384C12.2244 5.40607 12.2589 5.4733 12.3065 5.53084C12.3541 5.58839 12.4137 5.63486 12.4811 5.66705C12.5485 5.69923 12.6221 5.71635 12.6968 5.71721H14.5663C14.6851 5.71614 14.7998 5.67403 14.891 5.59802Z" fill="white"/>
</svg>
