<svg width="20" height="20" viewBox="0 0 20 20" fill="none" xmlns="http://www.w3.org/2000/svg">
<g clip-path="url(#clip0_6260_56998)">
<path d="M8.45989 5.8569L8.57477 5.86299C8.79559 5.87481 8.96834 6.05752 8.96834 6.27866V6.82427C8.96834 7.07408 8.75005 7.26525 8.50052 7.25364C8.42661 7.2502 8.35257 7.24833 8.27834 7.24833C8.06408 7.24833 7.92822 7.30022 7.84948 7.38496C7.77816 7.4623 7.73167 7.61024 7.73167 7.85333V8.13167H8.55167C8.78179 8.13167 8.96834 8.31821 8.96834 8.54833V9.38881C8.96834 9.61893 8.78179 9.80547 8.55167 9.80547H7.73167V13.9133C7.73167 14.1435 7.54512 14.33 7.31501 14.33H6.32501C6.09489 14.33 5.90834 14.1435 5.90834 13.9133V9.80547H5.13859C4.90847 9.80547 4.72192 9.61893 4.72192 9.38881V8.54833C4.72192 8.31821 4.90847 8.13167 5.13859 8.13167H5.90834V7.74833C5.90834 7.19278 6.08218 6.73149 6.43374 6.37176C6.78941 6.00781 7.32033 5.83333 8.01 5.83333C8.15999 5.83333 8.30995 5.84119 8.45989 5.8569Z" fill="white"/>
<path d="M12.4626 9.47701L11.5695 8.15211C11.492 8.03721 11.3625 7.96833 11.224 7.96833H10.1483C9.81198 7.96833 9.61424 8.34622 9.80596 8.62253L11.3934 10.9103L9.61243 13.5148C9.42332 13.7913 9.62135 14.1667 9.95637 14.1667H11.0006C11.1403 14.1667 11.2708 14.0966 11.3479 13.9801L12.4396 12.3325L13.5313 13.9801C13.6085 14.0966 13.7389 14.1667 13.8786 14.1667H14.9522C15.2886 14.1667 15.4864 13.7886 15.2945 13.5123L13.4629 10.8753L15.044 8.62451C15.238 8.34841 15.0405 7.96833 14.7031 7.96833H13.6913C13.552 7.96833 13.4219 8.03796 13.3446 8.15387L12.4626 9.47701Z" fill="white"/>
<path fill-rule="evenodd" clip-rule="evenodd" d="M18.9226 2.74408C18.7663 2.5878 18.5543 2.5 18.3333 2.5H1.66665C1.44563 2.5 1.23367 2.5878 1.07739 2.74408C0.92111 2.90036 0.833313 3.11232 0.833313 3.33333V16.6667C0.833313 16.8877 0.92111 17.0996 1.07739 17.2559C1.23367 17.4122 1.44563 17.5 1.66665 17.5H18.3333C18.5543 17.5 18.7663 17.4122 18.9226 17.2559C19.0788 17.0996 19.1666 16.8877 19.1666 16.6667V3.33333C19.1666 3.11232 19.0788 2.90036 18.9226 2.74408ZM2.49998 4.16667H17.5V15.8333H2.49998V4.16667Z" fill="white"/>
</g>
<defs>
<clipPath id="clip0_6260_56998">
<rect width="20" height="20" fill="white"/>
</clipPath>
</defs>
</svg>
