<svg width="20" height="20" viewBox="0 0 32 32" fill="none" xmlns="http://www.w3.org/2000/svg">
<path d="M0 8C0 3.58172 3.58172 0 8 0H24C28.4183 0 32 3.58172 32 8V24C32 28.4183 28.4183 32 24 32H8C3.58172 32 0 28.4183 0 24V8Z" fill="#FF8800"/>
<g clip-path="url(#clip0_10330_2372)">
<path d="M22.5715 7.55565C22.7761 7.55565 22.9542 7.69533 23.0031 7.89401L26.3667 21.5792C26.4356 21.8593 26.2235 22.1297 25.9351 22.1297H24.9468C24.7483 22.1297 24.5739 21.9981 24.5194 21.8072L23.4149 17.9355H19.6078L19.0541 19.8045C18.1413 22.4957 15.4533 24.4445 12.2798 24.4445C9.32693 24.4445 6.79442 22.7572 5.71945 20.3549C5.69242 20.2945 5.66068 20.2159 5.62896 20.134C5.53599 19.8941 5.67535 19.6296 5.92345 19.5612C5.96516 19.5497 6.0032 19.5393 6.03397 19.5308C6.35482 19.4424 6.61238 19.3715 6.80666 19.318C7.02895 19.2568 7.25552 19.3785 7.34889 19.5893C8.14894 21.3957 10.0553 22.6668 12.2798 22.6668C14.5329 22.6668 16.4597 21.3628 17.2411 19.5193L17.317 19.3285L20.0773 7.89578C20.1255 7.69624 20.3041 7.55565 20.5094 7.55565H22.5715ZM12.2798 7.11121C14.9799 7.11121 17.1687 9.41058 17.1687 12.247V16.1976C17.1687 19.0341 14.9799 21.3334 12.2798 21.3334C9.57975 21.3334 7.39092 19.0341 7.39092 16.1976V12.247C7.39092 9.41058 9.57975 7.11121 12.2798 7.11121ZM21.5396 9.10632L19.9645 16.0903H23.1147L21.5396 9.10632Z" fill="white"/>
</g>
<defs>
<clipPath id="clip0_10330_2372">
<rect width="21.3333" height="21.3333" fill="white" transform="translate(5.33331 5.33337)"/>
</clipPath>
</defs>
</svg>