<svg width="16" height="16" viewBox="0 0 16 16" fill="none" xmlns="http://www.w3.org/2000/svg">
<path d="M9.33333 1.33337H6.66667V3.33337H7.33333V4.66671H3.66667C2.93029 4.66671 2.33333 5.26366 2.33333 6.00004V13.3334C2.33333 14.0698 2.93029 14.6667 3.66667 14.6667H12.3333C13.0697 14.6667 13.6667 14.0698 13.6667 13.3334V6.00004C13.6667 5.26366 13.0697 4.66671 12.3333 4.66671H8.66667V3.33337H9.33333V1.33337ZM4.66667 8.66671H6.66667V10.6667H4.66667V8.66671ZM11.3333 8.66671V10.6667H9.33333V8.66671H11.3333Z" fill="white"/>
<path d="M1.33333 8.00004H0V11.3334H1.33333V8.00004Z" fill="white"/>
<path d="M14.6667 8.00004H16V11.3334H14.6667V8.00004Z" fill="white"/>
</svg>
