<svg width="40" height="40" viewBox="0 0 40 40" fill="none" xmlns="http://www.w3.org/2000/svg">
<path d="M32.7371 16.6285C32.6394 16.9833 32.5125 17.3284 32.3563 17.6604H32.3595L32.34 17.7027C31.23 20.1961 28.3297 25.0917 28.3297 25.0917L28.3167 25.0591L27.4704 26.6085H31.5523L23.7531 37.5L25.5239 30.0915H22.3079L23.4244 25.1926C22.5195 25.4205 21.455 25.7362 20.1888 26.1626C20.1888 26.1626 18.4799 27.214 15.2607 24.138C15.2607 24.138 13.0895 22.1328 14.3492 21.6283C14.8831 21.4167 16.9468 21.1466 18.5711 20.9122C20.7617 20.5997 22.1126 20.4337 22.1126 20.4337C22.1126 20.4337 15.3518 20.5411 13.7471 20.2742C12.1423 20.0105 10.1112 17.1982 9.67497 14.7276C9.67497 14.7276 9.00443 13.3702 11.1137 14.0115C13.2262 14.6527 21.9661 16.5113 21.9661 16.5113C21.9661 16.5113 10.6027 12.8559 9.84749 11.964C9.09232 11.0721 7.62103 7.08794 7.81308 4.64339C7.81308 4.64339 7.89771 4.03144 8.49339 4.19419C8.49339 4.19419 16.898 8.23047 22.6431 10.4341C28.3883 12.6443 33.3816 13.7706 32.7371 16.6285Z" fill="#3296FA"/>
</svg>
