<svg width="40" height="40" viewBox="0 0 40 40" fill="none" xmlns="http://www.w3.org/2000/svg">
<path d="M26.9508 30.4241C26.7624 30.6118 26.7508 30.9095 26.9144 31.1116C26.9254 31.1254 26.9374 31.1388 26.9508 31.1522C26.9732 31.1746 26.9976 31.1938 27.0227 31.2117C27.0729 31.2584 27.1227 31.3066 27.1715 31.3554C28.1351 32.3193 28.7408 33.5049 28.9893 34.7479C28.9934 34.8177 29.001 34.8875 29.0127 34.9569C29.0247 35.0332 29.0409 35.1092 29.0612 35.1841C29.1564 35.5334 29.341 35.8637 29.6153 36.1381C30.4561 36.9789 31.8195 36.9789 32.6599 36.1381C33.5008 35.2972 33.5008 33.9342 32.6599 33.0934C32.3636 32.7967 32.002 32.6056 31.6218 32.518C31.5795 32.5083 31.5365 32.4997 31.4936 32.4929C31.4506 32.4856 31.4073 32.4795 31.3633 32.4746C30.0893 32.2375 28.8714 31.6263 27.8862 30.6407C27.815 30.5699 27.7459 30.4974 27.6792 30.4238L27.6789 30.4241C27.5782 30.3238 27.4465 30.2732 27.3149 30.2732C27.1829 30.2732 27.0512 30.3238 26.9508 30.4241Z" fill="#FB6500"/>
<path d="M35.7037 27.0198C35.4074 27.3168 35.2163 27.6781 35.1286 28.0583C35.119 28.1006 35.1104 28.1436 35.1028 28.1865C35.096 28.2298 35.0898 28.2732 35.0853 28.3168C34.8481 29.5904 34.2369 30.8087 33.2514 31.7943C33.1802 31.8651 33.1077 31.9342 33.0345 32.0009L33.0348 32.0012C32.8337 32.2023 32.8337 32.5282 33.0348 32.7293C33.2225 32.9173 33.5198 32.9293 33.7223 32.7657C33.7357 32.7547 33.7495 32.7427 33.7625 32.7293C33.7849 32.7069 33.8045 32.6829 33.8223 32.6578C33.8691 32.6072 33.9165 32.5577 33.966 32.5086C34.9296 31.545 36.1152 30.9393 37.3582 30.6911C37.4284 30.687 37.4981 30.6795 37.5676 30.6678C37.6439 30.6557 37.7195 30.6396 37.7945 30.6186C38.1444 30.5234 38.4744 30.3395 38.7487 30.0652C39.5895 29.2243 39.5895 27.8613 38.7487 27.0198C38.3283 26.5994 37.7773 26.3894 37.2262 26.3894C36.6752 26.3894 36.1241 26.5994 35.7037 27.0198Z" fill="#3880E7"/>
<path d="M29.6306 20.9315C28.7905 21.7723 28.7905 23.1357 29.6306 23.9765C29.9269 24.2728 30.2882 24.4643 30.6684 24.5516C30.7114 24.5612 30.7544 24.5698 30.7973 24.577C30.8406 24.5842 30.884 24.5904 30.9273 24.5949C32.2016 24.8324 33.4192 25.4433 34.4047 26.4288C34.4759 26.4997 34.545 26.5729 34.612 26.6458C34.8134 26.8469 35.139 26.8469 35.3404 26.6458C35.5285 26.4577 35.5401 26.1604 35.3765 25.9582C35.3648 25.9441 35.3531 25.9304 35.3404 25.9177C35.3181 25.895 35.2933 25.8757 35.2686 25.8585C35.218 25.8111 35.1685 25.763 35.1194 25.7142C34.1555 24.7506 33.5501 23.565 33.3013 22.3216C33.2978 22.2519 33.2899 22.1821 33.2789 22.113C33.2669 22.0367 33.25 21.9607 33.2301 21.8854C33.1342 21.5362 32.9499 21.2061 32.676 20.9315C32.2556 20.5111 31.7042 20.3007 31.1531 20.3007C30.6021 20.3007 30.051 20.5111 29.6306 20.9315Z" fill="#2DBC00"/>
<path d="M28.5685 24.3038C28.5547 24.3155 28.541 24.3272 28.5283 24.3406C28.5056 24.3629 28.4863 24.3866 28.4684 24.4121C28.4217 24.4623 28.3739 24.5118 28.3248 24.5609C27.3612 25.5248 26.1756 26.1305 24.9322 26.3784C24.8624 26.3825 24.7927 26.3904 24.7232 26.4017C24.6469 26.4134 24.5709 26.4303 24.496 26.4509C24.1464 26.5461 23.8164 26.7304 23.5417 27.0043C22.7009 27.8455 22.7009 29.2089 23.5417 30.0497C24.3829 30.8905 25.7459 30.8905 26.5871 30.0497C26.883 29.7537 27.0749 29.3921 27.1625 29.0119C27.1718 28.9689 27.1807 28.9259 27.1873 28.883C27.1948 28.8397 27.2003 28.7964 27.2055 28.753C27.443 27.4791 28.0539 26.2611 29.0394 25.2753C29.1106 25.2044 29.1831 25.1357 29.2567 25.0687L29.2563 25.0683C29.4571 24.8672 29.4571 24.5413 29.2563 24.3406C29.1556 24.2399 29.024 24.1897 28.892 24.1897C28.7771 24.1897 28.6627 24.2278 28.5685 24.3038Z" fill="#FFCC00"/>
<path d="M15.5511 5.69592C11.6835 6.11633 8.16861 7.77118 5.65369 10.3549C4.66092 11.3748 3.85206 12.5143 3.24911 13.7419C2.43097 15.407 2.01605 17.175 2.01605 18.9962C2.01605 21.341 2.72969 23.6527 4.07997 25.6823C4.7637 26.7105 5.8816 28.0054 6.91046 28.9177V28.9198L6.4457 32.5736C6.42714 32.6234 6.4072 32.6726 6.39586 32.7252C6.3852 32.7726 6.38211 32.8221 6.37695 32.8713C6.3742 32.9084 6.36595 32.9448 6.36595 32.9833C6.36595 33.0239 6.3742 33.0624 6.37798 33.1026C6.43917 33.7038 6.94037 34.1751 7.55776 34.1751C7.77295 34.1751 7.97198 34.1136 8.14592 34.0136C8.15142 34.0105 8.15761 34.0077 8.16277 34.0046C8.18855 33.9895 8.21433 33.9764 8.23874 33.9593L9.34907 33.402L12.6584 31.741C13.6096 32.0143 14.5536 32.1886 15.5487 32.2979C16.1957 32.369 16.8519 32.4055 17.5006 32.4055C18.1613 32.4055 18.8467 32.3656 19.5366 32.2872C20.8941 32.1329 22.1997 31.8197 23.439 31.3752C23.3049 31.3302 23.1733 31.2725 23.0457 31.1996C22.2874 30.7661 21.8952 29.9411 21.9729 29.1247C21.0873 29.4059 20.1623 29.6076 19.2066 29.7163C18.6264 29.7823 18.0523 29.8156 17.5006 29.8156C16.9578 29.8156 16.4088 29.7854 15.867 29.7259C15.7543 29.7139 15.6415 29.696 15.5288 29.6809C14.7849 29.5819 14.0499 29.4299 13.3394 29.2223C13.195 29.1762 13.0414 29.1525 12.8846 29.1525C12.6392 29.1525 12.4016 29.2175 12.161 29.3423C12.1297 29.3584 12.0984 29.3718 12.0672 29.39L9.34907 30.9919L9.23151 31.0617L9.22841 31.0631C9.16929 31.0975 9.13629 31.1105 9.10604 31.1105C9.006 31.1105 8.92522 31.0263 8.92522 30.9225L9.03007 30.4993C9.05963 30.3873 9.10122 30.2302 9.15072 30.0387C9.20985 29.8142 9.27895 29.5502 9.34907 29.2842C9.42642 28.9899 9.50376 28.6932 9.56976 28.4416C9.59727 28.3436 9.62511 28.2261 9.62511 28.0941C9.62511 27.7287 9.45082 27.3839 9.15966 27.1721C9.0115 27.0628 8.86369 26.948 8.70831 26.8215C8.47043 26.6273 8.24252 26.4255 8.02355 26.2179C7.40788 25.6338 6.86749 24.9965 6.41305 24.3134C5.34431 22.7064 4.77883 20.8827 4.77883 19.0395C4.77883 17.6088 5.10608 16.218 5.75097 14.9045C6.23326 13.9237 6.88193 13.0104 7.68048 12.1902C9.74783 10.0658 12.6553 8.70379 15.867 8.35487C16.4253 8.29437 16.9753 8.26309 17.5006 8.26309C18.052 8.26309 18.6257 8.29644 19.2066 8.36278C22.4032 8.72579 25.2935 10.095 27.3454 12.217C28.1402 13.0392 28.7858 13.9547 29.2643 14.9378C29.8989 16.2424 30.2206 17.6226 30.2206 19.0395C30.2206 19.1863 30.2113 19.3334 30.2045 19.4802C31.0333 18.9728 32.1288 19.0722 32.8473 19.7899C32.8834 19.8267 32.9139 19.8663 32.9466 19.9044C32.97 19.6026 32.9837 19.2997 32.9837 18.9962C32.9837 17.1918 32.5753 15.438 31.7703 13.7838C31.1721 12.5528 30.3671 11.4109 29.3787 10.3882C26.882 7.80658 23.3864 6.14314 19.5366 5.7052C18.8454 5.62682 18.1602 5.58694 17.5006 5.58694C16.8712 5.58694 16.2156 5.62338 15.5511 5.69592Z" fill="#0082EF"/>
</svg>
