<svg width="30" height="30" viewBox="0 0 30 30" fill="none" xmlns="http://www.w3.org/2000/svg">
<path d="M17.5 2.5H12.5V6.25H13.75V8.75H6.875C5.49429 8.75 4.375 9.86929 4.375 11.25V25C4.375 26.3807 5.49429 27.5 6.875 27.5H23.125C24.5057 27.5 25.625 26.3807 25.625 25V11.25C25.625 9.86929 24.5057 8.75 23.125 8.75H16.25V6.25H17.5V2.5ZM8.75 16.25H12.5V20H8.75V16.25ZM21.25 16.25V20H17.5V16.25H21.25Z" fill="url(#paint0_linear_1514_13484)"/>
<path d="M2.5 15H0V21.25H2.5V15Z" fill="url(#paint1_linear_1514_13484)"/>
<path d="M27.5 15H30V21.25H27.5V15Z" fill="url(#paint2_linear_1514_13484)"/>
<defs>
<linearGradient id="paint0_linear_1514_13484" x1="15" y1="2.5" x2="15" y2="27.5" gradientUnits="userSpaceOnUse">
<stop stop-color="#3370FF"/>
<stop offset="1" stop-color="#7F3BF5"/>
</linearGradient>
<linearGradient id="paint1_linear_1514_13484" x1="15" y1="2.5" x2="15" y2="27.5" gradientUnits="userSpaceOnUse">
<stop stop-color="#3370FF"/>
<stop offset="1" stop-color="#7F3BF5"/>
</linearGradient>
<linearGradient id="paint2_linear_1514_13484" x1="15" y1="2.5" x2="15" y2="27.5" gradientUnits="userSpaceOnUse">
<stop stop-color="#3370FF"/>
<stop offset="1" stop-color="#7F3BF5"/>
</linearGradient>
</defs>
</svg>
