<svg id="图层_1" data-name="图层 1" xmlns="http://www.w3.org/2000/svg" xmlns:xlink="http://www.w3.org/1999/xlink" viewBox="0 0 899.0245 232.6551"><defs><style>.cls-1{fill:url(#未命名的渐变_7);}.cls-2{fill:url(#未命名的渐变_7-2);}.cls-3{fill:url(#未命名的渐变_7-3);}.cls-4{fill:url(#未命名的渐变_7-4);}.cls-5{fill:url(#未命名的渐变_7-5);}.cls-6{fill:url(#未命名的渐变_7-6);}.cls-7{fill:url(#未命名的渐变_7-7);}.cls-8{fill:url(#未命名的渐变_7-8);}.cls-9{fill:url(#未命名的渐变_7-9);}.cls-10{fill:url(#未命名的渐变_7-10);}.cls-11{fill:url(#未命名的渐变_7-11);}</style><linearGradient id="未命名的渐变_7" x1="522.3777" y1="64.6293" x2="522.3777" y2="176.7969" gradientUnits="userSpaceOnUse"><stop offset="0" stop-color="#3370ff"/><stop offset="1" stop-color="#7f3bf5"/></linearGradient><linearGradient id="未命名的渐变_7-2" x1="394.0561" y1="68.4089" x2="394.0561" y2="177.6167" xlink:href="#未命名的渐变_7"/><linearGradient id="未命名的渐变_7-3" x1="610.6092" y1="64.3444" x2="610.6092" y2="173.9614" xlink:href="#未命名的渐变_7"/><linearGradient id="未命名的渐变_7-4" x1="707.1011" y1="61.8676" x2="707.1011" y2="171.8843" xlink:href="#未命名的渐变_7"/><linearGradient id="未命名的渐变_7-5" x1="808.0515" y1="58.539" x2="808.0515" y2="170.5694" xlink:href="#未命名的渐变_7"/><linearGradient id="未命名的渐变_7-6" x1="168.8411" y1="172.7802" x2="168.8411" y2="191.6432" xlink:href="#未命名的渐变_7"/><linearGradient id="未命名的渐变_7-7" x1="264.5278" y1="86.4845" x2="264.5278" y2="127.6357" xlink:href="#未命名的渐变_7"/><linearGradient id="未命名的渐变_7-8" x1="78.3636" y1="86.4845" x2="78.3636" y2="127.6357" xlink:href="#未命名的渐变_7"/><linearGradient id="未命名的渐变_7-9" x1="194.0338" y1="91.9316" x2="194.0338" y2="114.5651" xlink:href="#未命名的渐变_7"/><linearGradient id="未命名的渐变_7-10" x1="150.5874" y1="91.9316" x2="150.5874" y2="114.5651" xlink:href="#未命名的渐变_7"/><linearGradient id="未命名的渐变_7-11" x1="171.4458" y1="44.6772" x2="171.4458" y2="169.1806" xlink:href="#未命名的渐变_7"/></defs><title>MaxKB</title><path class="cls-1" d="M557.7867,123.31v51.5042H535.2835l-.1064-5.2118q-11.8043,6.1329-23.07,6.1314h-2.2231q-11.5733,0-18.3943-8.8906a27.9829,27.9829,0,0,1-4.5214-15.5582v-.6135q0-15.1752,10.6529-20.157,4.3695-2.9118,22.15-2.9122h12.109v-2.8362q0-8.7367-2.5292-10.04-2.7588-2.0694-9.7337-2.0692H495.4762l.41-20.6319,27.7943-.7516q24.755,0,30.6572,12.2629Q557.7863,110.6635,557.7867,123.31Zm-43.34,21.389c-.7679.9139-1.5737,3.8782-1.5737,5.9725q0,6.8982,7.0515,6.898,4.2141,0,11.9559-3.4488V142.8966S517.2448,141.3694,514.4472,144.6987Z"/><path class="cls-2" d="M437.075,176.6351l-7.85-78.5221-22.0594,78.5221H381.4781L359.9239,98.113l-8.13,78.5221-35.5114-.3025L333.6074,60.4283h45.2419l15.5092,55.1531,15.6609-55.1531h44.1829L471.83,176.6351Z"/><polygon class="cls-3" points="622.963 174.268 610.797 149.355 598.63 174.268 570.017 174.268 593.472 132.987 571.069 94.409 598.781 94.409 610.797 117.971 622.438 94.409 650.149 94.409 627.896 132.987 651.201 174.268 622.963 174.268"/><path class="cls-4" d="M724.55,174.2684c-.5513-.8-27.2546-44.1529-27.2546-44.1529l-8.7694,13.5v30.6529H659.0113V58.9139h29.5146V105.68l26.97-46.3772h30.791l-32.0762,51.2586,40.9805,63.707Z"/><path class="cls-5" d="M853.3021,143.1155c0,16.8026-8.3759,32.2042-38.3816,32.2042h-52.12V58.3377l39.8785-.7639s23.6228-1.0416,35.5672,8.0417c8.8,6.6922,11.6909,18.4123,10.8449,28.22s-5.3726,16.113-12.7893,20.7276C846.4688,118.6155,853.3021,126.3129,853.3021,143.1155Zm-44-37.5644c9.9444,0,15.4583-5.0189,15.4583-12.166,0-7.6029-5.0833-12.0613-15.4583-12.0613l-17.137.0452v24.1821Zm.8874,46.5625c13.7793,0,17.1681-7.3954,17.1681-12.3164,0-7.76-5.5-13.3681-14.6666-13.3681H792.1651v25.6845Z"/><path class="cls-6" d="M183.6784,172.78H154.0037l-10.9986,10.9987a4.6068,4.6068,0,0,0,3.2575,7.8643H191.42a4.6068,4.6068,0,0,0,3.2575-7.8643Z"/><path class="cls-7" d="M265.226,86.4845h-5.85v41.1512h5.85a4.4537,4.4537,0,0,0,4.4537-4.4538V90.9383A4.4538,4.4538,0,0,0,265.226,86.4845Z"/><path class="cls-8" d="M83.5156,86.4845h-5.85a4.4538,4.4538,0,0,0-4.4537,4.4538v32.2436a4.4537,4.4537,0,0,0,4.4537,4.4538h5.85Z"/><path class="cls-9" d="M194.0338,91.9316a8.33,8.33,0,0,0-8.33,8.33v5.9727a8.33,8.33,0,1,0,16.6608,0V100.262A8.33,8.33,0,0,0,194.0338,91.9316Z"/><path class="cls-10" d="M150.5874,91.9316a8.33,8.33,0,0,0-8.33,8.33v5.9727a8.33,8.33,0,0,0,16.6608,0V100.262A8.33,8.33,0,0,0,150.5874,91.9316Z"/><path class="cls-11" d="M222.06,44.6772H120.8315A33.7544,33.7544,0,0,0,87.1152,78.3935v57.07a33.7548,33.7548,0,0,0,33.7163,33.7168H222.06a33.7549,33.7549,0,0,0,33.7168-33.7168v-57.07A33.7545,33.7545,0,0,0,222.06,44.6772Zm2.831,90.4457a6.0734,6.0734,0,0,1-6.0733,6.0733H169.442a43.5911,43.5911,0,0,0-21.3313,5.5757l-16.5647,9.2946v-14.87h-7.472a6.0734,6.0734,0,0,1-6.0733-6.0733v-60.5A6.0733,6.0733,0,0,1,124.074,68.55h94.7433a6.0733,6.0733,0,0,1,6.0733,6.0733Z"/></svg>