<svg width="24" height="24" viewBox="0 0 24 24" fill="none" xmlns="http://www.w3.org/2000/svg">
<path d="M4 2.5C4 1.94772 4.44772 1.5 5 1.5H14.7929C14.9255 1.5 15.0527 1.55268 15.1464 1.64645L19.8536 6.35355C19.9473 6.44732 20 6.5745 20 6.70711V21.5C20 22.0523 19.5523 22.5 19 22.5H5C4.44772 22.5 4 22.0523 4 21.5V2.5Z" fill="#F54A45"/>
<path d="M15 1.54492C15.054 1.56949 15.1037 1.6037 15.1464 1.64646L19.8536 6.35357C19.8963 6.39632 19.9305 6.44602 19.9551 6.50001H16C15.4477 6.50001 15 6.0523 15 5.50001V1.54492Z" fill="#D03F3B"/>
<path d="M17.6091 15.2316C17.3608 14.9368 16.8517 14.7934 16.0526 14.7934C15.5881 14.7934 15.027 14.8425 14.3839 14.9392C12.6276 13.6551 12.1372 12.2384 12.1372 12.2384C12.1372 12.2384 12.4371 11.4747 12.4562 10.2274C12.4682 9.43896 12.3461 8.9071 12.0307 8.59811C11.908 8.478 11.7023 8.40039 11.5066 8.40039C11.3539 8.40039 11.2109 8.44525 11.0937 8.53102C10.1806 9.19913 11.1775 12.3487 11.2041 12.4326C10.7733 13.4931 10.2305 14.6165 9.6718 15.6037C9.49028 15.9244 9.50797 15.8994 9.35494 16.1602C9.35494 16.1602 7.80983 16.8859 7.06037 17.7773C6.63691 18.281 6.58338 18.621 6.60586 18.8801L6.60643 18.8858C6.6421 19.1909 7.03273 19.4688 7.42598 19.4688C7.44229 19.4688 7.45871 19.4683 7.47478 19.4673C7.87445 19.4426 8.31243 19.1586 8.81374 18.5991C9.14462 18.2297 9.57462 17.5798 10.0924 16.6668C11.5778 16.2442 12.8851 15.9432 13.9807 15.7716C14.7842 16.204 15.9795 16.6936 16.7932 16.6936C17.0661 16.6936 17.2857 16.638 17.4458 16.5282C17.6373 16.397 17.7187 16.2334 17.7692 15.9306C17.8198 15.6278 17.7494 15.3982 17.6091 15.2316ZM15.8737 15.6003C16.5879 15.6003 16.9745 15.7041 17.1732 15.7912C17.2345 15.8181 17.279 15.844 17.3106 15.8657C17.2547 15.9014 17.1446 15.9466 16.9456 15.9466C16.6156 15.9466 16.1826 15.8314 15.6544 15.6034C15.7295 15.6013 15.8027 15.6003 15.8737 15.6003ZM11.6412 9.03253C11.6417 9.03159 11.6422 9.03062 11.6429 9.02961C11.7961 9.11028 11.8676 9.67679 11.8532 10.0053C11.8339 10.4461 11.8293 10.6164 11.752 10.8872C11.5422 10.3226 11.5273 9.30775 11.6412 9.03253ZM11.6972 13.5014C12.0575 14.0864 12.5917 14.7201 13.1065 15.1725C12.1018 15.3848 11.1372 15.651 10.537 15.8581C11.1803 14.7595 11.655 13.6103 11.6972 13.5014ZM7.56217 18.5462C7.64933 18.401 7.88748 18.1197 8.49143 17.5757C8.07746 18.1983 7.77338 18.5373 7.46488 18.7488C7.49042 18.6821 7.52255 18.6122 7.56217 18.5462Z" fill="white"/>
</svg>
