<?xml version="1.0" standalone="no"?><!DOCTYPE svg PUBLIC "-//W3C//DTD SVG 1.1//EN" "http://www.w3.org/Graphics/SVG/1.1/DTD/svg11.dtd"><svg t="1744092984968" class="icon" viewBox="0 0 1024 1024" version="1.1" xmlns="http://www.w3.org/2000/svg" p-id="1250" xmlns:xlink="http://www.w3.org/1999/xlink" width="200" height="200"><path d="M384 768a64 64 0 1 0 0 128 64 64 0 0 0 0-128z m0-320a64 64 0 1 0 0 128 64 64 0 0 0 0-128z m0-320a64 64 0 1 0 0 128 64 64 0 0 0 0-128z m256 640a64 64 0 1 0 0 128 64 64 0 0 0 0-128z m0-320a64 64 0 1 0 0 128 64 64 0 0 0 0-128z m0-320a64 64 0 1 0 0 128 64 64 0 0 0 0-128z" p-id="1251"></path></svg>