<svg width="40" height="40" viewBox="0 0 40 40" fill="none" xmlns="http://www.w3.org/2000/svg">
<path d="M33.0404 11.3738C33.2279 11.5614 33.3333 11.8157 33.3333 12.0809V34.8149C33.3333 35.8376 32.5374 36.6667 31.5555 36.6667H8.4444C7.46256 36.6667 6.66663 35.8376 6.66663 34.8149V5.18523C6.66663 4.16248 7.46256 3.33337 8.4444 3.33337H24.5857C24.851 3.33337 25.1053 3.43873 25.2929 3.62627L33.0404 11.3738Z" fill="#3370FF"/>
<path d="M20.6509 15.8135C20.3173 15.3965 19.683 15.3965 19.3494 15.8135L14.4166 21.9795C13.9801 22.5251 14.3686 23.3334 15.0673 23.3334H18.3335V26.6667H21.6668V23.3334H24.9329C25.6317 23.3334 26.0202 22.5251 25.5837 21.9795L20.6509 15.8135Z" fill="white"/>
<path d="M18.3335 30.0001V28.3334H21.6668V30.0001H18.3335Z" fill="white"/>
<path d="M25 3.33337L33.3333 11.6667H26.6667C25.7462 11.6667 25 10.9205 25 10V3.33337Z" fill="#2B5FD9"/>
</svg>
