<svg width="12" height="14" viewBox="0 0 12 14" fill="none" xmlns="http://www.w3.org/2000/svg">
<path d="M8 7.33333H4C2.15905 7.33333 0 8.62098 0 10.9333V12.7333C0 13.0647 0.298477 13.3333 0.666667 13.3333H11.3333C11.7015 13.3333 12 13.0647 12 12.7333V10.9333C12 8.61904 9.84095 7.33333 8 7.33333Z" fill="url(#paint0_linear_264_32130)"/>
<path d="M2.66667 3.33333C2.66667 5.17428 4.15905 6.66667 6 6.66667C7.84095 6.66667 9.33333 5.17428 9.33333 3.33333C9.33333 1.49238 7.84095 0 6 0C4.15905 0 2.66667 1.49238 2.66667 3.33333Z" fill="url(#paint1_linear_264_32130)"/>
<defs>
<linearGradient id="paint0_linear_264_32130" x1="6" y1="-1.34111e-08" x2="6" y2="13.6667" gradientUnits="userSpaceOnUse">
<stop stop-color="white"/>
<stop offset="1" stop-color="white" stop-opacity="0"/>
</linearGradient>
<linearGradient id="paint1_linear_264_32130" x1="6" y1="-1.34111e-08" x2="6" y2="13.6667" gradientUnits="userSpaceOnUse">
<stop stop-color="white"/>
<stop offset="1" stop-color="white" stop-opacity="0"/>
</linearGradient>
</defs>
</svg>
